<svg id="Calque_1" data-name="Calque 1" xmlns="http://www.w3.org/2000/svg" viewBox="0 0 306.24 246.46"><path d="M341.93,342.54a18.85,18.85,0,0,1-18.85,18.85,23.56,23.56,0,0,1-23.56-23.56A29.46,29.46,0,0,1,329,308.38a36.81,36.81,0,0,1,36.82,36.82,46,46,0,0,1-46,46,57.52,57.52,0,0,1-57.52-57.52,71.9,71.9,0,0,1,71.9-71.9A89.88,89.88,0,0,1,424,351.67,112.35,112.35,0,0,1,311.68,464H171.24" transform="translate(-127.79 -251.79)" style="fill:none;stroke:#14FF00;stroke-linecap:round;stroke-miterlimit:1;stroke-width:20px"/><path d="M127.79,464c20.45-7.59,45.82-20.54,61.54-34.25L177,464l12.38,34.23C173.61,484.54,148.24,471.6,127.79,464Z" transform="translate(-127.79 -251.79)" style="fill:#14FF00"/></svg>