<svg id="Calque_1" data-name="Calque 1" xmlns="http://www.w3.org/2000/svg" viewBox="0 0 668.3 668.3"><defs><style>.cls-1{fill:none;stroke-width:20px;}.cls-1,.cls-2{stroke:#1d1d1b;stroke-miterlimit:10;}.cls-2{stroke-width:2px;}</style></defs><g id="Logo_Burton_Museum" data-name="Logo Burton Museum"><circle class="cls-1" cx="334.15" cy="334.15" r="324.15"/><path class="cls-2" d="M346.65,242.52q3.44,2.68,10,8.82Q374.26,266.7,383.29,275t23.79,23.58q14.76,15.38,21.86,26.09a305.72,305.72,0,0,1,15.55,27.06q8.43,16.32,10.35,30.88a163.82,163.82,0,0,1,.58,33,137.31,137.31,0,0,1-8.64,38q-10,28-30.69,52.94a233.11,233.11,0,0,1-46.43,42.8,263.86,263.86,0,0,1-56.2,29.53,240.73,240.73,0,0,1-59.86,15,177.8,177.8,0,0,1-57.17-2.69q-27.8-5.94-48.52-21.66a1.88,1.88,0,0,1-.39-2.88,2,2,0,0,1,3.08-.58,137.73,137.73,0,0,0,37.2,17.46,141.24,141.24,0,0,0,40.48,6,170.84,170.84,0,0,0,40.87-5,146.49,146.49,0,0,0,39.33-16.11A192.81,192.81,0,0,0,344,541.41a181.06,181.06,0,0,0,29.73-37.61,213.62,213.62,0,0,0,21.29-48,183.11,183.11,0,0,0,9-51.6q.58-25.12-5.19-45.27a218.69,218.69,0,0,0-39.32-75.39q-12.86-15.74-26.85-32.43t-26.48-30.5A279.21,279.21,0,0,1,283,191.11q-10.74-15.74-15.72-29.54V423.23a4.14,4.14,0,0,0,2.11,3.65,4.22,4.22,0,0,0,4.4.19l11.52-4.61c1,.52,2.11,1,3.27,1.55a7.17,7.17,0,0,0,2.68.76,2.8,2.8,0,0,1,1.53.38,1,1,0,0,1,.39,1.15,6.67,6.67,0,0,1-1.73,2.3q-23,24.18-30.69,37.61A13.47,13.47,0,0,1,250,470.42a20.48,20.48,0,0,1-11.53-4.6c-3.57-2.81-5.37-5.63-5.37-8.44V138.54H433.75a105.54,105.54,0,0,1-5,16.51c-2,5.12-4,9.58-5.95,13.42a67.3,67.3,0,0,1-8.63,12.66Q408.41,188,405,192.27A107,107,0,0,1,392.88,204q-8.62,7.48-13,11.13t-15.92,13Q352.4,237.53,346.65,242.52Zm-77.5-90.92a148.87,148.87,0,0,0,12.46,22.24,204.09,204.09,0,0,0,16.89,21.69q9.39,10.53,18.41,19.37t20.53,19.56q18.4-10.35,27.82-34.53t5.18-48.33Z" transform="translate(-46.89 -69.67)"/><path class="cls-2" d="M663,474.18a1.23,1.23,0,0,1,.91.39.7.7,0,0,1,.13.91q-5.19,13-9.86,19.49t-8.33,7.28c-2.43.51-4.71-.48-6.88-3a33,33,0,0,1-5.59-9.86,144.82,144.82,0,0,1-4.68-15.21L585.34,307.86v-1l-34.05,82.9,10.92,24.94A31.28,31.28,0,0,0,570,425.58q4.93,4.43,9.36,3.12a.74.74,0,0,1,.91.13,1.27,1.27,0,0,1,.39.91,140.35,140.35,0,0,1-5.72,18.45q-2.87,7-5.85,9.36a7.46,7.46,0,0,1-6,1.82c-2-.35-4-1.78-6.11-4.28a55.32,55.32,0,0,1-5.85-8.84c-1.82-3.39-3.76-7.41-5.85-12.09q-33-76.14-49.63-114.08L474.89,456.77a32.51,32.51,0,0,0,1,16.38,20.88,20.88,0,0,0,4.29,7.92,57.56,57.56,0,0,0,7.92,6.88,565.75,565.75,0,0,1-53.65,53.28q-26.39,22.6-48.87,36.25a233.76,233.76,0,0,1-45.08,21.43,205.83,205.83,0,0,1-41.71,10.15,214.76,214.76,0,0,1-39.63,1v-2.6a280.47,280.47,0,0,0,36.9-3.5,231.56,231.56,0,0,0,37.82-9.62A227,227,0,0,0,370.81,578a189.76,189.76,0,0,0,33.92-24.3,189.1,189.1,0,0,0,51.71-74.58,243.13,243.13,0,0,0,14-52l22.87-149.69,8.84-.78,44.18,101.87,40.28-98.23,14.28-5.46,47.56,183a27.79,27.79,0,0,0,5.85,11.83C657.19,473,660.08,474.53,663,474.18Z" transform="translate(-46.89 -69.67)"/></g></svg>