<svg id="Calque_1" data-name="Calque 1" xmlns="http://www.w3.org/2000/svg" viewBox="0 0 706 706"><defs><style>.cls-1{fill:none;stroke:#1d1d1b;stroke-miterlimit:10;stroke-width:20px;}.cls-2{fill:#010102;}</style></defs><g id="Logo_Wednesday" data-name="Logo Wednesday"><circle class="cls-1" cx="353" cy="353" r="343"/><path class="cls-2" d="M303.31,160.21c-.26,2.62-2.4,2.69-4,3.31-8.51,3.29-12.13,9.57-12.24,18.57-.14,10.44,2.11,20.54,3.7,30.73,2.49,15.93,5.49,31.78,8.08,47.69,4.08,25.05,8.24,50.09,11.91,75.19,3.86,26.37,8.15,52.66,12.27,79,2.61,16.63,5.32,33.25,8,49.88.26,1.61.61,3.2.91,4.81.16.87.11,2,1.24,2.14,1.41.15,1.7-1.11,2-2.13,1.08-4.21,2.14-8.43,3.15-12.65,3.18-13.4,7-26.64,10.69-39.9,4.92-17.63,9.53-35.34,14.35-53,5.87-21.5,11.85-43,17.71-64.47,4-14.87,8-29.76,12-44.64.37-1.4.73-2.81,1.18-4.18,1.53-4.73,1.67-4.68,6.42-4.71,3.1,0,4.47,1.34,5.25,4.25q9.76,36.5,19.74,72.94,11,40.38,22.1,80.75c5.79,21,11.56,41.92,16.8,63,.43,1.71.32,4.5,2.25,4.47,2.5,0,1.38-2.85,1.65-4.46q4-23.58,7.84-47.19c2.66-16.27,5.37-32.54,7.88-48.84,3.2-20.78,6.16-41.6,9.34-62.39,2.17-14.16,4.54-28.28,6.87-42.41,3.06-18.6,6.08-37.2,9.31-55.77a220.79,220.79,0,0,0,3-23.17,36.49,36.49,0,0,0-.64-10.83c-1.4-5.93-5.08-9.86-10.53-12.3-.49-.22-1.05-.31-1.52-.57-1.33-.73-3.71-.73-3.21-3,.38-1.72,2.39-1.28,3.76-1.31q10.35-.16,20.7-.16,37.84,0,75.71.16c3,0,6.17-.44,9.07,1.05-.06,2.73-2.16,3.14-4,3.88a76.27,76.27,0,0,0-15.47,7.91C576,179.32,570.68,190.13,567.22,202c-6.89,23.67-12.14,47.76-17.47,71.82-4.28,19.29-8.46,38.59-12.16,58-1.86,9.79-4.09,19.52-5.84,29.33-2.31,12.95-2.75,25.93.4,38.87a53.18,53.18,0,0,0,8.36,18.74c3,4.22,2.7,6-1.76,8.76-9.31,5.73-17,12.9-21.8,22.94-3,6.3-4.38,13-5.73,19.79q-3.36,16.8-6.57,33.61c-2.73,14.24-5.1,28.55-7.71,42.81-3.25,17.84-6.34,35.7-9.46,53.56-4.22,24.1-8.45,48.2-12,72.42-.63,4.3-1.51,8.56-2.22,12.85-.41,2.5-1.63,3.65-4.32,3.87-8.77.74-8.67.83-10.63-7.93-6.94-31-14.05-61.9-20.87-92.89-3.5-15.94-6.56-32-9.74-48-3.44-17.25-6.89-34.49-10.15-51.78-4.84-25.65-9.53-51.33-14.25-77-.75-4.1-1.26-8.25-1.93-12.36-.11-.72-.49-1.52-1.25-1.63-1.11-.16-1.53.79-1.74,1.66a28.74,28.74,0,0,0-.49,3.22c-2,15.1-5.15,30-7.93,44.95-3.94,21.2-7.63,42.46-11.66,63.64-3.09,16.21-6.48,32.36-9.86,48.5-3.6,17.21-7.41,34.37-11,51.57q-4.79,22.88-10.27,45.59c-2.32,9.68-4.48,19.41-6.57,29.14-.51,2.4-1.79,3.42-4.07,3.5q-3,.1-6,.15c-2.4,0-3.65-1.17-3.89-3.57-.65-6.32-2.08-12.52-3-18.79-4.23-28.15-9.23-56.17-14.13-84.21-4.69-26.79-9.36-53.59-14.24-80.35-2.4-13.19-5.12-26.34-7.95-39.45-3.36-15.56-12.32-27.21-25.78-35.5-4.48-2.76-5.18-4.47-2.21-8.62,10.88-15.21,11.62-32.42,10-50.05-1.22-13.38-4.69-26.39-7.34-39.53-2.86-14.22-5.79-28.42-8.89-42.59-3.61-16.47-7.4-32.9-11.18-49.33-2.92-12.72-6-25.4-9.88-37.89-5.41-17.47-16.31-29.64-33.73-35.71-1.86-.65-4.6-1-4.25-3.35.39-2.62,3.23-1.64,5-1.64q48.47-.12,97-.11C298.5,159.05,301.08,158.74,303.31,160.21Z" transform="translate(-47 -47)"/></g></svg>