<svg id="Calque_1" data-name="Calque 1" xmlns="http://www.w3.org/2000/svg" viewBox="0 0 727.45 727.45"><defs><style>.cls-1,.cls-2{fill:none;}.cls-1,.cls-3,.cls-4{stroke:#1d1d1b;stroke-miterlimit:10;}.cls-1{stroke-width:20px;}.cls-3,.cls-5{fill:#1d1d1b;}.cls-4,.cls-6{fill:#fefefe;}</style></defs><g id="Logo_Alice" data-name="Logo Alice"><circle class="cls-1" cx="363.72" cy="363.72" r="353.72"/><path class="cls-2" d="M220.17,539.92c-11.53-14.23-21.56-29.55-32.25-44.39-18.81-26.11-37.36-52.41-56.24-78.47-2.65-3.66-2.44-5.94.38-9.28,16.86-19.92,37.27-35.52,59.17-49.37,1.89-1.2,4.51-1.72,5-4.5,5.71.57,6.7-1.6,4.46-6.7-9.55-21.68-19.25-43.33-31-63.83-7.06-12.24-6.09-23.35-1-35.23a98.72,98.72,0,0,1,8.68-16.38c20.45-30.29,49.43-49.59,82.5-63.36,45.18-18.82,92.85-24.63,141.25-25.5a485.66,485.66,0,0,1,75.21,4.64c39.37,5.45,77.25,15.76,112.19,35.1C616,197.84,640,217,655.55,245c7.23,13,9.72,25.13,1.52,40-27.25,49.62-48.23,102.1-66.37,155.71-1,3.08-1.14,6-6,3.3-50.16-27.58-104.81-36.81-161.15-38.8a561.43,561.43,0,0,0-69,2.26c-3.54.31-5.42.47-4.27,5.15,7.38,29.91,14.41,59.91,21.55,89.87,1.56,6.55,1.21,6.85-5.77,5.15-.43-1.87-.87-3.73-1.31-5.6Q343.47,412,322.24,321.92c-1.18-5.06-2.71-6.59-8.44-5.22-33.93,8.1-66.61,19.47-97.54,35.66-27.95,14.63-53.69,32.28-75.15,55.74-3,3.3-3.21,5.53-.51,9.24,15.93,21.91,31.61,44,47.28,66.09,12.58,17.72,25,35.54,37.53,53.32C224.28,538.83,222.22,539.36,220.17,539.92Z" transform="translate(-36.28 -36.28)"/><path class="cls-3" d="M366.06,507.73c7,1.7,7.33,1.4,5.77-5.15-7.14-30-14.17-60-21.55-89.87-1.15-4.68.73-4.84,4.27-5.15a561.43,561.43,0,0,1,69-2.26c56.34,2,111,11.22,161.15,38.8,4.88,2.68,5-.22,6-3.3,18.14-53.61,39.12-106.09,66.37-155.71,8.2-14.92,5.71-27-1.52-40-15.59-28-39.59-47.2-67-62.39-34.94-19.34-72.82-29.65-112.19-35.1a485.66,485.66,0,0,0-75.21-4.64c-48.4.87-96.07,6.68-141.25,25.5-33.07,13.77-62,33.07-82.5,63.36a98.72,98.72,0,0,0-8.68,16.38c-5.11,11.88-6.08,23,1,35.23,11.8,20.5,21.5,42.15,31,63.83,2.24,5.1,1.25,7.27-4.46,6.7-9.93-23.09-20.31-46-32.85-67.78-7.23-12.55-7.18-24.51-2.38-37.3,10.08-26.81,29-46.39,51.71-62.72,30.29-21.78,64.52-34.62,100.79-41.57,73.29-14,146.33-13,218.54,7,38.47,10.65,73.68,27.89,103.08,55.53,14.1,13.26,25.91,28.26,32.54,46.82,3.77,10.56,3.42,20.22-2.14,30.6-41.71,77.94-71.41,160.54-94,245.82a32,32,0,0,0-.41,3.2c9.35-2.18,18.2-4.91,27.4-5.89a74.7,74.7,0,0,1,23.55.84c19.63,4.15,31.65,20.7,30.6,42-2.26,46-32.77,76.18-79,78.13-20.28.85-40.37-1.33-58.94-9.18-12.9-5.46-25.48-5.48-38.6-4.44-37.21,3-74.23,7.61-110.7,15.56-13,2.84-25.57,8-38.85,10.35a254.32,254.32,0,0,1-108.44-4.1c-24.41-6.22-38.78-22.31-41.09-44.87-.84-8.21,1-16.15,4-23.75,6.92-17.68,17.48-32.6,33.38-43.44,2-1.37,4.72-2.13,5.67-4.83,2.05-.56,4.11-1.09,5.24-3.17a21.8,21.8,0,0,0,3.52-1.21,231.65,231.65,0,0,1,73.59-25.73C323.62,506.09,344.8,505.85,366.06,507.73ZM565.19,559c10.37-1.42,20-2.22,29.83-1.24,15.18,1.53,23.18,10.25,21,23.82a24.21,24.21,0,0,1-12,17.34c-7.15,4.32-15.08,5.69-23.24,6.21-23.07,1.49-44.25-5.15-64.57-15.27-27.56-13.72-51.79-32.94-78.74-47.76-25.86-14.23-53-23.39-82.44-25.16-38.23-2.3-74.69,5.4-109.23,21.75-19.66,9.31-37.87,20.69-49,40.56-6,10.75-11.42,21.83-9.39,34.49,3.23,20.14,17.33,30.07,35.63,34.9a261.73,261.73,0,0,0,93.78,7.63c11.72-1.19,23.5-2.66,34.79-6.65-.94-2.12-2.53-2-4-2.19-7.34-1.25-14.75-2.26-22-3.93-10-2.31-19.73-5.66-28-12-10.21-7.79-9.65-19.45,1.3-26.28A58.65,58.65,0,0,1,309.89,600c12.58-4.53,25.81-5.54,39-6.15,50.54-2.34,98.11,9,143.37,31.27,28.63,14.1,58.57,21.19,90.94,17.55,45.37-5.09,66.75-45.49,63.64-80.33-1.15-12.79-8.11-22.23-20.68-26.81-13.44-4.9-26.92-3.3-40.21.26C565.55,541.3,570.31,536.64,565.19,559Zm13.68,3.06a76.37,76.37,0,0,0-8.29.06c-3.51.39-7,.74-7.84,5.58-1.45,8.35-3.42,16.6-5.18,24.89-.67,3.14.18,4.82,3.76,4.82,3.81,0,7.63.74,11.43.61,9.29-.3,18.67-.25,27.14-5.14,7-4,11-11.27,9.65-18.59-1.27-7.14-7.09-8.87-13-10.36A53.61,53.61,0,0,0,578.87,562.05Z" transform="translate(-36.28 -36.28)"/><path class="cls-4" d="M366.06,507.73c-21.26-1.88-42.44-1.64-63.54,2.08a231.65,231.65,0,0,0-73.59,25.73,21.8,21.8,0,0,1-3.52,1.21c-12.51-17.78-24.95-35.6-37.53-53.32-15.67-22.09-31.35-44.18-47.28-66.09-2.7-3.71-2.5-5.94.51-9.24,21.46-23.46,47.2-41.11,75.15-55.74,30.93-16.19,63.61-27.56,97.54-35.66,5.73-1.37,7.26.16,8.44,5.22q21.13,90.13,42.51,180.21C365.19,504,365.63,505.86,366.06,507.73ZM203.33,411.09c.73,16.41,7,31.62,15.82,45.91,5.84,9.51,12.7,18.28,22.68,23.83,9.81,5.45,17.14,1.83,19.11-9.21a33.05,33.05,0,0,0,.3-7.64c-.71-13.45-5.18-25.81-11.44-37.53-6.57-12.31-14.27-23.86-26.69-31.12-9.92-5.8-17.62-2-19.41,9.34C203.4,406.56,203.47,408.5,203.33,411.09Zm104.41,52.22c-3.27-7.1-3.31-14.08-2.34-21.11a86,86,0,0,1,8.82-27.88c1.81-3.49.25-5.52-1.94-7-3-2-3.36,1.54-4.28,2.95-6.93,10.64-9.92,22.6-10.47,35.08-.58,13,1.36,25.58,9.61,36.25,3.95,5.11,9.5,7.1,15.95,5.92,6-1.1,9-5.48,10.69-10.74,2.19-6.74,1.9-13.44-1.71-19.76-3.2-5.59-8.1-7.18-14.11-4.94C312.73,454,310.35,458.49,307.74,463.31Zm-25.05,36.53h-.14q-1.5-28.75-3-57.49-2.1-41.87-4.16-83.72c-.09-1.88.72-4.66-3-4.17-2.6.35-4.51,1.2-3.94,4.39a21.55,21.55,0,0,1,.15,2.55q1.21,24.6,2.44,49.2c1.49,30.46,2.93,60.91,4.54,91.36.07,1.44-1.46,4.61,1.88,4.23,2.25-.24,5.37-.76,5.18-4.44C282.66,501.12,282.69,500.48,282.69,499.84Zm-63.26.28c4.61-3.39,9.7-6.58,14-10.62,1.21-1.14-1.8-3.79-2.88-5.74-.64-1.15-1.63-2.4-2.95-1.08-4.14,4.09-5.1.08-6.62-2.48q-19.36-32.67-38.7-65.34c-1-1.77-1.57-4.2-4.56-2.17-2,1.36-4,2.12-2.51,5.32,1.89,4.07,2.11,8.26-1.38,11.89-1.48,1.54-1.13,3,.29,4.43s3.16,2.91,4.88,1.12c3.67-3.82,4.79-.66,6.38,1.9q14.87,24.07,29.82,48.11c1.52,2.42,3.39,4.58-.06,6.93-1.63,1.11-1.23,2.57,0,3.73S216.85,499.57,219.43,500.12Z" transform="translate(-36.28 -36.28)"/><path class="cls-2" d="M565.19,559c5.12-22.35.36-17.69,20.74-23.16,13.29-3.56,26.77-5.16,40.21-.26,12.57,4.58,19.53,14,20.68,26.81,3.11,34.84-18.27,75.24-63.64,80.33-32.37,3.64-62.31-3.45-90.94-17.55-45.26-22.28-92.83-33.61-143.37-31.27-13.17.61-26.4,1.62-39,6.15a58.65,58.65,0,0,0-10.95,5.18c-10.95,6.83-11.51,18.49-1.3,26.28,8.3,6.33,18,9.68,28,12,7.24,1.67,14.65,2.68,22,3.93,1.46.24,3,.07,4,2.19-11.29,4-23.07,5.46-34.79,6.65a261.73,261.73,0,0,1-93.78-7.63c-18.3-4.83-32.4-14.76-35.63-34.9-2-12.66,3.4-23.74,9.39-34.49,11.09-19.87,29.3-31.25,49-40.56,34.54-16.35,71-24,109.23-21.75,29.41,1.77,56.58,10.93,82.44,25.16,26.95,14.82,51.18,34,78.74,47.76,20.32,10.12,41.5,16.76,64.57,15.27,8.16-.52,16.09-1.89,23.24-6.21a24.21,24.21,0,0,0,12-17.34c2.21-13.57-5.79-22.29-21-23.82C585.23,556.77,575.56,557.57,565.19,559Z" transform="translate(-36.28 -36.28)"/><path class="cls-2" d="M578.87,562.05a53.61,53.61,0,0,1,17.64,1.87c5.94,1.49,11.76,3.22,13,10.36,1.31,7.32-2.7,14.57-9.65,18.59-8.47,4.89-17.85,4.84-27.14,5.14-3.8.13-7.62-.61-11.43-.61-3.58,0-4.43-1.68-3.76-4.82,1.76-8.29,3.73-16.54,5.18-24.89.84-4.84,4.33-5.19,7.84-5.58A76.37,76.37,0,0,1,578.87,562.05Z" transform="translate(-36.28 -36.28)"/><path class="cls-5" d="M203.33,411.09c.14-2.59.07-4.53.37-6.42,1.79-11.3,9.49-15.14,19.41-9.34,12.42,7.26,20.12,18.81,26.69,31.12,6.26,11.72,10.73,24.08,11.44,37.53a33.05,33.05,0,0,1-.3,7.64c-2,11-9.3,14.66-19.11,9.21-10-5.55-16.84-14.32-22.68-23.83C210.37,442.71,204.06,427.5,203.33,411.09Zm50.25,54.81c-3.61-23-13.18-44-31-60.87a15.46,15.46,0,0,0-3.18-2.12c-4-2.2-6.35-1.13-7.25,3.47-1.1,5.66.32,11.05,1.79,16.34,5.29,18.93,13.84,36.07,28.62,49.51,2.11,1.93,4.72,4.38,7.87,2.75S253.05,469.92,253.58,465.9Z" transform="translate(-36.28 -36.28)"/><path class="cls-5" d="M307.74,463.31c2.61-4.82,5-9.31,10.22-11.26,6-2.24,10.91-.65,14.11,4.94,3.61,6.32,3.9,13,1.71,19.76-1.71,5.26-4.7,9.64-10.69,10.74-6.45,1.18-12-.81-15.95-5.92-8.25-10.67-10.19-23.27-9.61-36.25.55-12.48,3.54-24.44,10.47-35.08.92-1.41,1.32-5,4.28-2.95,2.19,1.51,3.75,3.54,1.94,7a86,86,0,0,0-8.82,27.88C304.43,449.23,304.47,456.21,307.74,463.31Zm7,8.43c.45,3,.29,7.13,4.75,6.69,5.51-.55,6.56-5.42,6.92-10,.26-3.31-.48-7.26-4.63-6.88C316.32,462.08,315.45,467,314.77,471.74Z" transform="translate(-36.28 -36.28)"/><path class="cls-5" d="M282.69,499.84c0,.64,0,1.28,0,1.92.19,3.68-2.93,4.2-5.18,4.44-3.34.38-1.81-2.79-1.88-4.23-1.61-30.45-3.05-60.9-4.54-91.36q-1.2-24.6-2.44-49.2a21.55,21.55,0,0,0-.15-2.55c-.57-3.19,1.34-4,3.94-4.39,3.68-.49,2.87,2.29,3,4.17q2.13,41.87,4.16,83.72,1.44,28.74,3,57.49Z" transform="translate(-36.28 -36.28)"/><path class="cls-5" d="M219.43,500.12c-2.58-.55-3-2.76-4.3-4s-1.63-2.62,0-3.73c3.45-2.35,1.58-4.51.06-6.93q-15-24-29.82-48.11c-1.59-2.56-2.71-5.72-6.38-1.9-1.72,1.79-3.42.4-4.88-1.12s-1.77-2.89-.29-4.43c3.49-3.63,3.27-7.82,1.38-11.89-1.49-3.2.51-4,2.51-5.32,3-2,3.52.4,4.56,2.17q19.35,32.67,38.7,65.34c1.52,2.56,2.48,6.57,6.62,2.48,1.32-1.32,2.31-.07,2.95,1.08,1.08,1.95,4.09,4.6,2.88,5.74C229.13,493.54,224,496.73,219.43,500.12Z" transform="translate(-36.28 -36.28)"/><path class="cls-6" d="M253.58,465.9c-.53,4-.12,7.52-3.14,9.08s-5.76-.82-7.87-2.75c-14.78-13.44-23.33-30.58-28.62-49.51-1.47-5.29-2.89-10.68-1.79-16.34.9-4.6,3.26-5.67,7.25-3.47a15.46,15.46,0,0,1,3.18,2.12C240.4,421.93,250,442.93,253.58,465.9Z" transform="translate(-36.28 -36.28)"/><path class="cls-6" d="M314.77,471.74c.68-4.74,1.55-9.66,7-10.16,4.15-.38,4.89,3.57,4.63,6.88-.36,4.55-1.41,9.42-6.92,10C315.06,478.87,315.22,474.7,314.77,471.74Z" transform="translate(-36.28 -36.28)"/></g></svg>