<svg id="Calque_1" data-name="Calque 1" xmlns="http://www.w3.org/2000/svg" viewBox="0 0 632.65 632.65"><defs><style>.cls-1{fill:none;stroke:#1d1d1b;stroke-miterlimit:10;stroke-width:20px;}</style></defs><g id="Logo_Jack" data-name="Logo Jack"><circle class="cls-1" cx="316.33" cy="316.33" r="306.33"/><path d="M415.85,297.21c4.31,1.07,7.81,2.23,11.4,2.78,21.68,3.29,40.69-9.66,46.32-31.28,7.56-29.07,25.85-47.68,55.29-54.12,49-10.73,93.48,33.37,83.9,82.68-9.23,47.53-47.57,79.82-95.94,80.81-47.66,1-89.85-31.64-100.48-77.69C416.16,299.61,416.09,298.8,415.85,297.21Z" transform="translate(-83.67 -83.67)"/><path d="M384,297c-1.07,4-1.79,7.09-2.73,10.14-13.58,44.39-55.82,73.35-103.17,70.74-46.11-2.54-82.76-34.93-91.44-80.8-7-36.84,16.6-73.35,53-82.1a71.32,71.32,0,0,1,85,49.18c1.27,4.32,2.26,8.79,4.11,12.86a40.64,40.64,0,0,0,48.39,21.91Z" transform="translate(-83.67 -83.67)"/><path d="M525.84,547.66c-.92-3.32-2-6.61-2.73-10-.74-3.17-1.2-6.41-1.91-10.28-2.26.73-4.15,1.32-6,1.94-13.25,4.33-26.43,8.94-39.81,12.84-4.31,1.26-5.09,3.22-5.41,7.25-.65,8.39-2.14,16.72-3.29,25.07h-2.81c-1.8-9.24-3.59-18.48-5.45-28-9.38,1.17-18.68,2.45-28,3.43A142.37,142.37,0,0,1,412,551c-5.13-.12-5.85,2.09-6.22,6.55-.81,9.85-2.43,19.64-3.72,29.46h-3.23c-1.59-10-3.53-20-4.62-30-.48-4.48-2-5.66-6.32-6-15.53-1.07-31-2.63-46.36-4-1.51,8.94-3.09,18.24-4.67,27.54l-2.77,0c-1.44-8.74-2.7-17.52-4.48-26.18-.43-2.08-2.25-4.9-4.05-5.5-15.37-5.08-30.88-9.72-46.7-14.61l-4.08,19.58-2.3,0c-1.26-6.72-2.35-13.48-3.86-20.15-.54-2.39-1.44-5.56-3.23-6.68-10.38-6.5-21.08-12.49-31.71-18.68l-3.53,10.12-1.94.23c-1.27-4.06-3.33-8.06-3.61-12.19-.35-5.06-2.64-8.21-6.25-11.31a159.84,159.84,0,0,1-40-51,32.3,32.3,0,0,1-2.92-8.65c12.43,21.55,28.73,39.44,48.67,54.87l4.55-10.13,1.57-.07c1.1,4,1.81,8.19,3.44,12,1.43,3.33,3.22,7.23,6,9.1,8.66,5.72,17.89,10.58,27.45,16.09,2-7.52,3.64-13.92,5.31-20.31l2.24-.07c1.21,6.05,2.8,12.06,3.51,18.16.62,5.32,2.68,8.44,8.05,10.05,13.89,4.19,27.63,8.85,42.23,13.57,2.09-9,3.88-16.61,5.66-24.24l2.08-.14c1.31,6,3.14,12,3.79,18,.69,6.47,3.56,9.24,10.06,9.7,12.26.87,24.51,2.16,36.72,3.66,5.52.68,7.11-2,7.83-6.67,1.13-7.37,2.64-14.69,4-22l2.61,0c1.48,7.41,3.35,14.78,4.31,22.26.66,5.2,2.65,7,7.88,6.43,13-1.54,26.1-2.83,39.17-4,5.15-.48,6.62-3.62,7.29-8.12,1-6.39,2.36-12.72,3.57-19.08l2.24-.09c1.18,5,2.51,10,3.51,15.1,1.55,7.84,2.15,8.56,9.61,6.37,12-3.53,23.83-7.58,35.79-11.23,4.87-1.49,6.45-4.61,6.94-9.5.6-6.07,2.32-12,3.56-18.06l2.34.09c1.57,6.21,3.14,12.43,5.14,20.32,11.07-6.67,21.58-12.81,31.8-19.38,1.46-.94,1.68-4,2.28-6.06,1.11-3.86,2.08-7.76,3.1-11.65l1.6-.08c1.12,3.1,2.25,6.2,3.75,10.34,20.1-15.73,36.62-33.48,49.54-54.84-1.14,2.75-2.14,5.58-3.46,8.25a159.4,159.4,0,0,1-40,51c-3.87,3.32-7,6.36-6.8,12.1.1,3.66-1.61,7.38-2.5,11.07l-1.72.15c-1.32-3.19-2.65-6.38-4.39-10.56-3.2,2.05-6.14,4.08-9.21,5.9-6.88,4.08-13.73,8.24-20.79,12-3.08,1.64-4.14,3.46-4.41,7-.53,7-2.11,13.93-3.26,20.88Z" transform="translate(-83.67 -83.67)"/><path d="M367.85,390.81c1.07-10.22,9.19-20,17.22-19.76,2.22.05,5.32,1,6.35,2.57s.23,4.67-.75,6.6a85.21,85.21,0,0,1-8,13c-1.89,2.48-6.06,6.28-7.17,5.69C372.39,397.3,370.33,393.66,367.85,390.81Z" transform="translate(-83.67 -83.67)"/><path d="M430.28,391.23c-.56,1.19-1.31,4.07-3,6.13-2.51,3-5.89,3.25-8.23-.31-3.92-6-7.7-12.05-11.12-18.32-2.3-4.22-.07-7.28,5.1-7.78C421.42,370.15,430.42,379.86,430.28,391.23Z" transform="translate(-83.67 -83.67)"/></g></svg>