<?xml version="1.0" standalone="no"?>
<!DOCTYPE svg PUBLIC "-//W3C//DTD SVG 20010904//EN"
 "http://www.w3.org/TR/2001/REC-SVG-20010904/DTD/svg10.dtd">
<svg version="1.0" xmlns="http://www.w3.org/2000/svg"
 width="450.000000pt" height="450.000000pt" viewBox="0 0 450.000000 450.000000"
 preserveAspectRatio="xMidYMid meet">

<g transform="translate(0.000000,450.000000) scale(0.100000,-0.100000)"
fill="#000000" stroke="none">
<path d="M2185 3685 c-1076 -493 -1392 -634 -1435 -640 -97 -12 -90 7 -90
-266 0 -140 4 -248 10 -259 5 -10 23 -21 40 -25 l30 -6 2 -882 c3 -960 1 -916
59 -959 19 -14 103 -33 305 -69 153 -27 772 -138 1374 -246 602 -108 1116
-196 1141 -196 62 -1 109 27 136 83 l22 45 7 1185 c4 701 10 1190 16 1197 5 6
12 83 14 170 6 155 5 159 -18 184 l-23 27 -1219 -103 c-671 -57 -1224 -102
-1228 -99 -16 10 -9 83 10 95 9 5 550 239 1201 519 651 280 1184 510 1186 512
3 4 -108 339 -118 356 -5 6 -16 12 -25 11 -9 0 -638 -286 -1397 -634z m1290
415 c110 -39 204 -75 209 -80 6 -6 -8 -17 -35 -28 -24 -11 -147 -65 -273 -121
-195 -87 -230 -100 -240 -87 -6 8 -89 46 -184 84 l-174 69 249 116 c136 63
248 116 248 116 1 1 91 -31 200 -69z m-978 -465 c86 -41 154 -77 152 -79 -2
-2 -100 -45 -217 -94 l-212 -91 -33 22 c-19 12 -88 49 -155 82 -67 32 -122 62
-122 65 0 3 84 44 188 92 137 64 195 86 215 83 15 -3 98 -39 184 -80z m-834
-369 c70 -37 125 -71 122 -76 -11 -17 -369 -164 -373 -152 -2 6 -61 44 -132
84 -71 40 -128 74 -126 75 2 2 79 39 172 82 147 69 172 77 189 66 11 -6 77
-42 148 -79z m1760 -452 c93 -86 167 -158 165 -160 -2 -1 -122 -10 -267 -19
l-263 -16 -106 100 c-121 113 -208 200 -202 202 3 1 113 12 245 24 132 12 245
23 250 24 6 0 86 -69 178 -155z m-2629 100 c13 -33 -24 -65 -50 -43 -19 16
-17 46 3 57 20 12 39 6 47 -14z m1601 -168 c77 -73 138 -136 135 -139 -3 -3
-102 -11 -220 -18 l-215 -12 -86 89 c-47 49 -105 110 -129 137 -40 45 -41 47
-19 48 13 0 87 7 164 14 250 22 210 35 370 -119z m-848 -61 c68 -74 107 -122
100 -126 -7 -4 -91 -10 -188 -13 l-177 -7 -25 33 c-23 29 -26 44 -28 128 l-2
95 54 6 c30 3 77 6 104 5 l50 -1 112 -120z m-476 5 c24 -13 25 -46 1 -59 -37
-20 -70 27 -40 57 15 15 15 15 39 2z m-287 -26 c20 -19 20 -29 0 -48 -12 -12
-20 -13 -35 -6 -21 12 -25 40 -7 58 16 16 23 15 42 -4z m2816 -418 l0 -24
-162 -6 c-269 -10 -2587 -30 -2595 -23 -4 4 -2 11 3 16 5 5 594 20 1309 34
715 13 1333 25 1373 26 70 1 72 0 72 -23z m-1856 -92 c26 -10 18 -24 -14 -24
-34 0 -42 -26 -12 -37 25 -9 52 -34 52 -49 0 -34 -78 -62 -95 -34 -4 6 7 10
25 10 31 0 56 30 31 38 -7 2 -24 14 -37 26 -35 30 -25 54 33 75 1 1 8 -2 17
-5z m1254 -6 c-3 -7 -17 -14 -31 -16 -27 -3 -27 -5 -27 -78 0 -59 -3 -74 -15
-74 -12 0 -15 15 -15 74 0 73 0 75 -27 78 -14 2 -28 9 -31 16 -3 9 16 12 73
12 57 0 76 -3 73 -12z m118 -60 c38 -112 37 -108 19 -108 -8 0 -20 11 -25 25
-7 19 -17 25 -40 25 -23 0 -33 -6 -40 -25 -5 -14 -17 -25 -26 -25 -10 0 -14 5
-11 14 3 8 18 49 33 91 23 64 30 76 47 73 15 -2 26 -20 43 -70z m106 31 l3
-41 30 41 c17 22 38 41 48 41 24 0 21 -9 -13 -45 l-30 -31 28 -40 c44 -61 45
-64 24 -64 -12 0 -30 16 -46 40 -31 47 -46 44 -46 -6 0 -28 -4 -35 -17 -32
-11 2 -18 12 -17 26 0 12 1 51 2 87 2 49 6 65 16 65 10 0 16 -13 18 -41z m248
26 c0 -11 -11 -15 -40 -15 -33 0 -40 -3 -40 -20 0 -16 7 -20 35 -20 24 0 35
-5 35 -15 0 -10 -11 -15 -35 -15 -31 0 -35 -3 -35 -25 0 -22 4 -25 40 -25 29
0 40 -4 40 -15 0 -12 -13 -15 -60 -15 l-60 0 0 90 0 90 60 0 c47 0 60 -3 60
-15z m-2506 -17 c8 -13 8 -23 -1 -37 -8 -12 -8 -22 -1 -29 5 -5 8 -20 5 -33
-4 -23 -5 -22 -16 9 -15 38 -41 43 -41 8 0 -14 -4 -28 -10 -31 -6 -4 -10 20
-10 65 l0 71 31 -3 c18 -2 37 -11 43 -20z m124 6 c33 -23 31 -88 -3 -110 -33
-21 -73 -11 -85 22 -15 38 -12 53 15 79 28 29 42 31 73 9z m72 -44 c0 -57 1
-60 25 -60 14 0 25 -4 25 -10 0 -5 -16 -10 -35 -10 l-35 0 0 70 c0 40 4 70 10
70 6 0 10 -27 10 -60z m740 50 c0 -5 -13 -10 -28 -10 -36 0 -52 -17 -52 -55 0
-38 16 -55 52 -55 15 0 28 -4 28 -10 0 -19 -69 -11 -90 10 -12 12 -20 33 -20
55 0 22 8 43 20 55 21 21 90 29 90 10z m110 0 c0 -5 -13 -10 -30 -10 -23 0
-30 -4 -30 -20 0 -16 7 -20 30 -20 17 0 30 -4 30 -10 0 -5 -13 -10 -30 -10
-25 0 -30 -4 -30 -25 0 -21 5 -25 29 -25 17 0 33 -4 36 -10 4 -6 -12 -10 -39
-10 l-46 0 0 75 0 75 40 0 c22 0 40 -4 40 -10z m97 -47 l33 -58 0 58 c0 31 5
57 10 57 6 0 10 -32 10 -75 0 -93 -15 -98 -59 -22 l-31 52 0 -52 c0 -40 -4
-53 -15 -53 -12 0 -15 15 -15 75 0 65 2 75 18 75 11 0 29 -21 49 -57z m173 47
c0 -5 -13 -10 -30 -10 -40 0 -44 -37 -5 -42 14 -2 26 -7 26 -13 0 -5 -12 -11
-26 -13 -38 -5 -35 -42 4 -42 31 0 49 -14 31 -25 -6 -4 -29 -4 -50 0 l-40 7 0
67 c0 37 3 71 7 74 10 11 83 8 83 -3z m-1020 -55 c0 -52 1 -55 25 -55 14 0 25
-4 25 -10 0 -5 -18 -10 -40 -10 l-40 0 0 65 c0 51 3 65 15 65 12 0 15 -13 15
-55z m980 -600 c734 -42 1341 -78 1348 -80 6 -2 12 -16 12 -30 0 -14 -6 -25
-12 -25 -26 0 -2625 170 -2685 176 -45 4 -63 10 -63 20 0 9 11 14 33 14 17 0
633 -34 1367 -75z m-1276 -66 c51 -40 20 -109 -49 -109 l-35 0 0 65 c0 65 0
65 29 65 15 0 40 -9 55 -21z m66 1 c0 -5 -4 -10 -10 -10 -5 0 -10 5 -10 10 0
6 5 10 10 10 6 0 10 -4 10 -10z m0 -75 c0 -25 -4 -45 -10 -45 -5 0 -10 20 -10
45 0 25 5 45 10 45 6 0 10 -20 10 -45z m50 34 c0 -8 5 -8 15 1 8 7 15 8 15 2
0 -5 -7 -15 -15 -22 -8 -7 -15 -26 -15 -42 0 -17 -4 -27 -10 -23 -5 3 -10 26
-10 51 0 24 5 44 10 44 6 0 10 -5 10 -11z m110 -9 c29 -29 25 -40 -16 -40 -21
0 -33 -4 -29 -10 3 -5 17 -10 31 -10 13 0 24 -4 24 -10 0 -16 -42 -12 -62 7
-22 20 -23 41 -1 65 21 23 28 23 53 -2z m158 3 c12 -12 13 -18 4 -21 -16 -5
-16 -59 1 -65 6 -2 9 -8 5 -12 -21 -22 -55 64 -40 103 6 16 10 15 30 -5z m-74
-13 c-12 -5 -25 -13 -28 -18 -10 -17 5 -42 25 -42 10 0 19 -4 19 -10 0 -16
-37 -12 -54 6 -32 32 -13 75 34 73 24 0 24 -1 4 -9z m188 -26 c14 -31 1 -57
-31 -62 -30 -5 -51 15 -51 48 0 34 6 40 42 40 21 0 32 -7 40 -26z m64 13 c8 3
14 1 14 -5 0 -5 -7 -12 -15 -16 -9 -3 -15 -18 -15 -36 0 -18 -4 -29 -10 -25
-5 3 -10 27 -10 53 0 34 3 43 11 35 6 -6 18 -9 25 -6z m-562 -213 c9 -3 16
-10 16 -16 0 -5 -5 -6 -11 -3 -5 4 -21 4 -35 1 -19 -5 -24 -13 -24 -39 0 -39
15 -57 47 -57 13 0 23 -4 23 -10 0 -5 -13 -10 -29 -10 -34 0 -71 39 -71 76 0
43 44 73 84 58z m100 -60 c20 -19 23 -99 4 -88 -7 5 -24 8 -38 8 -20 1 -25 6
-25 26 0 20 6 26 28 28 30 4 27 22 -4 22 -10 0 -19 5 -19 10 0 16 37 12 54 -6z
m136 -6 c37 0 50 -16 50 -59 0 -50 -18 -51 -22 -1 -2 25 -8 37 -18 37 -10 0
-16 -12 -18 -37 -4 -51 -20 -48 -24 5 -4 56 -32 59 -36 5 -5 -56 -22 -46 -22
12 l0 49 33 -6 c17 -3 43 -5 57 -5z m141 -18 c10 -6 19 -20 19 -30 0 -16 -7
-20 -31 -20 -38 0 -35 -24 4 -28 28 -3 28 -22 1 -22 -17 0 -64 44 -64 60 0 10
36 50 46 50 3 0 14 -5 25 -10z m85 -13 c8 3 14 0 14 -6 0 -6 -7 -11 -15 -11
-10 0 -15 -11 -15 -35 0 -19 -4 -35 -10 -35 -5 0 -10 23 -10 52 0 38 3 49 11
41 6 -6 18 -9 25 -6z m85 -7 c14 -8 19 -21 19 -53 l0 -43 -36 4 c-19 2 -38 11
-41 18 -7 19 15 44 39 44 10 0 16 5 13 10 -3 6 -15 10 -26 10 -10 0 -19 5 -19
10 0 13 26 13 51 0z m703 -265 c726 -96 1336 -177 1354 -180 26 -5 32 -11 32
-30 0 -14 -5 -25 -11 -25 -6 0 -622 86 -1369 190 -747 105 -1363 190 -1369
190 -6 0 -11 7 -11 15 0 9 10 15 26 15 14 0 621 -79 1348 -175z m-1257 29 c31
-19 39 -58 19 -89 -13 -20 -25 -25 -56 -25 l-40 0 0 70 0 70 28 -6 c15 -4 37
-13 49 -20z m183 -44 c16 -16 17 -20 5 -20 -10 0 -15 -10 -15 -30 0 -16 5 -30
10 -30 6 0 10 -5 10 -11 0 -6 -8 -9 -17 -7 -13 2 -20 16 -24 48 -6 41 -3 70 7
70 2 0 13 -9 24 -20z m-72 -2 c7 -7 12 -29 12 -50 0 -36 -1 -37 -32 -33 -28 4
-47 18 -48 37 0 12 40 29 52 22 6 -4 9 -1 6 7 -2 7 -15 16 -29 20 l-24 7 26 1
c14 1 30 -4 37 -11z m180 -55 c3 -17 -2 -19 -28 -15 -40 6 -40 -17 1 -25 19
-4 27 -9 21 -15 -18 -18 -67 14 -70 47 -5 39 23 61 52 41 12 -7 22 -22 24 -33z"/>
<path d="M3056 2098 c-9 -35 -8 -38 14 -38 11 0 20 3 20 8 0 19 -13 52 -20 52
-4 0 -10 -10 -14 -22z"/>
<path d="M910 2120 c0 -13 7 -20 20 -20 13 0 20 7 20 20 0 13 -7 20 -20 20
-13 0 -20 -7 -20 -20z"/>
<path d="M1032 2118 c-18 -18 -15 -77 4 -85 24 -9 49 10 52 41 6 45 -29 71
-56 44z"/>
<path d="M900 1375 c0 -41 2 -45 25 -45 17 0 29 8 36 24 15 32 -4 66 -36 66
-23 0 -25 -4 -25 -45z"/>
<path d="M1145 1360 c-3 -5 3 -10 14 -10 12 0 21 5 21 10 0 6 -6 10 -14 10 -8
0 -18 -4 -21 -10z"/>
<path d="M1404 1336 c-9 -24 0 -51 18 -54 21 -4 34 34 18 53 -16 19 -29 19
-36 1z"/>
<path d="M1024 1029 c-10 -17 13 -36 27 -22 12 12 4 33 -11 33 -5 0 -12 -5
-16 -11z"/>
<path d="M1300 1031 c0 -5 9 -11 20 -14 13 -3 20 0 20 9 0 8 -9 14 -20 14 -11
0 -20 -4 -20 -9z"/>
<path d="M1473 968 c2 -7 10 -13 17 -13 7 0 15 6 18 13 2 7 -5 12 -18 12 -13
0 -20 -5 -17 -12z"/>
<path d="M900 749 c0 -49 1 -50 28 -47 22 2 28 8 30 35 2 23 -3 35 -20 47 -34
24 -38 20 -38 -35z"/>
<path d="M1030 695 c0 -8 7 -15 15 -15 8 0 15 7 15 15 0 8 -7 15 -15 15 -8 0
-15 -7 -15 -15z"/>
<path d="M1196 711 c-3 -5 1 -12 10 -15 20 -8 29 -1 19 13 -8 13 -22 14 -29 2z"/>
</g>
</svg>
