<?xml version="1.0" standalone="no"?>
<!DOCTYPE svg PUBLIC "-//W3C//DTD SVG 20010904//EN"
 "http://www.w3.org/TR/2001/REC-SVG-20010904/DTD/svg10.dtd">
<svg version="1.0" xmlns="http://www.w3.org/2000/svg"
 width="573.000000pt" height="431.000000pt" viewBox="0 0 573.000000 431.000000"
 preserveAspectRatio="xMidYMid meet">

<g transform="translate(0.000000,431.000000) scale(0.100000,-0.100000)"
fill="#000000" stroke="none">
<path d="M0 2155 l0 -2155 2865 0 2865 0 0 2155 0 2155 -2865 0 -2865 0 0
-2155z m2655 1890 c26 -27 120 -47 210 -43 62 2 71 -1 166 -50 55 -29 102 -52
105 -52 3 0 -4 15 -16 33 l-22 32 22 -25 c88 -103 97 -107 146 -72 54 39 75
49 39 19 -16 -13 -41 -34 -55 -45 -17 -15 -20 -21 -10 -22 12 0 12 -2 2 -9
-11 -6 -6 -20 23 -62 36 -53 36 -53 5 -19 -20 21 -30 27 -25 15 5 -11 10 -80
11 -152 1 -73 5 -137 9 -142 6 -11 -23 -109 -36 -116 -4 -3 -7 4 -6 15 1 11 5
20 9 20 4 0 8 7 8 16 0 8 -4 12 -10 9 -5 -3 -10 -1 -10 5 0 7 6 10 14 7 8 -3
17 1 20 9 11 28 6 38 -8 18 -14 -18 -15 -18 -24 6 -8 19 -6 31 5 49 14 22 14
24 -1 18 -12 -5 -15 0 -12 23 3 30 -7 40 -19 20 -4 -6 -11 -7 -17 -4 -5 4 7
24 29 47 21 23 30 35 21 28 -12 -9 -18 -10 -18 -2 0 6 -7 11 -15 11 -8 0 -15
6 -15 13 0 6 -4 18 -9 26 -7 11 -13 9 -31 -9 -12 -12 -24 -19 -27 -17 -2 3 15
24 39 47 l43 41 -60 -39 c-120 -79 -335 -156 -495 -178 -58 -7 -114 -14 -124
-14 -18 0 -18 -1 -4 -12 18 -15 31 -85 17 -93 -5 -4 -9 9 -9 27 0 18 -5 40
-10 48 -7 11 -10 0 -8 -37 1 -49 3 -53 30 -58 19 -5 28 -13 28 -26 0 -12 5
-17 11 -14 19 12 61 -4 55 -21 -3 -8 -2 -13 2 -11 10 5 51 -40 43 -49 -3 -4
10 -4 30 0 38 7 108 -12 79 -21 -8 -3 -34 -13 -57 -24 -24 -10 -47 -19 -53
-19 -16 0 -12 -18 7 -29 10 -5 15 -12 12 -15 -3 -3 -41 15 -85 40 -59 33 -87
57 -112 92 -17 26 -32 53 -32 60 0 7 -11 30 -25 52 -14 22 -25 49 -25 60 0 11
-6 36 -14 54 -12 28 -12 38 -2 53 7 10 16 35 20 56 20 108 90 249 144 289 20
15 23 109 4 145 -9 17 -9 22 1 26 23 9 72 -6 92 -28z m431 -420 c-11 -8 -27
-15 -35 -15 -10 1 -7 6 9 15 33 19 50 18 26 0z m-76 -35 c-8 -5 -22 -9 -30 -9
-10 0 -8 3 5 9 27 12 43 12 25 0z m-70 -20 c0 -5 -5 -10 -11 -10 -5 0 -7 5 -4
10 3 6 8 10 11 10 2 0 4 -4 4 -10z m190 -205 c0 -11 11 -15 39 -15 26 0 41 -5
45 -16 7 -19 -1 -34 -18 -34 -7 0 -33 -24 -58 -53 -25 -29 -68 -65 -97 -81
-53 -28 -74 -29 -52 -2 16 19 6 36 -20 36 -30 0 -22 18 12 25 22 5 28 10 19
15 -11 7 -10 13 2 33 9 13 18 32 20 43 4 24 38 56 53 50 7 -2 18 0 26 5 20 13
29 11 29 -6z m-415 -245 c3 -5 0 -10 -7 -10 -9 0 -10 -2 -1 -8 6 -4 13 -25 15
-47 3 -32 8 -41 26 -43 16 -3 22 2 22 15 0 20 18 43 33 43 5 0 6 -12 3 -27
-15 -72 -17 -103 -6 -103 6 0 8 5 5 10 -3 6 -1 10 5 10 6 0 10 6 9 13 -3 25 1
38 11 32 6 -4 10 10 10 34 0 49 12 53 25 9 7 -22 18 -35 35 -39 l25 -7 -27 -1
c-24 -1 -28 -5 -28 -31 0 -20 -5 -30 -15 -30 -8 0 -15 -4 -15 -9 0 -6 -12 -6
-30 -1 -16 5 -39 6 -52 2 -21 -5 -21 -6 -2 -13 13 -5 3 -8 -31 -8 -69 -2 -126
-12 -119 -22 3 -5 17 -10 32 -10 24 -1 23 -3 -10 -12 -36 -10 -52 -27 -26 -27
21 0 -6 -18 -32 -22 -20 -2 -26 -9 -28 -35 -3 -27 0 -33 17 -33 11 0 22 4 25
9 4 5 28 3 59 -5 64 -17 149 -18 165 -2 9 9 12 9 12 0 0 -7 -4 -12 -10 -12 -5
0 -10 -4 -10 -8 0 -7 65 -15 110 -14 60 2 199 26 221 39 27 16 27 17 11 50
-14 30 -20 33 -59 33 -34 0 -41 3 -37 15 5 12 -3 15 -37 16 -38 1 -40 2 -15 8
41 9 43 28 4 40 -18 5 -25 10 -16 10 28 2 30 19 2 19 -14 0 -28 -7 -31 -14 -3
-8 -10 -14 -16 -14 -5 0 -2 9 7 19 16 17 16 23 2 79 -19 73 -19 72 -1 72 9 0
19 9 23 19 6 16 19 2 77 -80 69 -98 70 -99 112 -99 23 0 54 -5 68 -10 26 -10
26 -12 20 -68 -12 -100 -42 -139 -142 -191 -49 -25 -54 -25 -47 -8 9 24 -19
38 -57 27 -43 -13 -120 -13 -100 -1 9 6 5 9 -14 9 -19 0 -23 -3 -14 -9 10 -6
6 -9 -13 -9 -18 0 -26 4 -23 13 4 8 -5 12 -22 13 -16 0 -56 4 -89 7 -49 6 -64
4 -74 -8 -7 -8 -27 -15 -44 -16 -26 0 -28 -2 -11 -9 40 -17 60 -23 68 -21 5 1
6 -3 2 -8 -7 -12 -58 5 -134 43 -41 21 -57 36 -72 69 -10 23 -19 52 -19 65 0
13 -7 36 -15 52 -18 35 -9 40 74 40 l57 0 64 98 c36 53 66 103 68 110 4 15 18
16 27 2z m211 -152 c0 -10 -4 -18 -8 -18 -4 0 -5 -6 -2 -14 4 -10 -1 -14 -15
-13 -24 1 -27 16 -8 36 10 11 10 13 0 7 -12 -7 -18 5 -8 15 12 12 41 3 41 -13z
m-228 -366 c-24 -3 -28 -8 -28 -37 0 -49 52 -73 89 -42 42 36 151 59 211 46
51 -11 78 3 48 25 -22 16 -23 26 -4 26 20 0 106 -98 106 -121 0 -13 6 -18 22
-16 16 1 24 -4 26 -18 2 -13 25 -32 69 -55 37 -19 68 -39 70 -45 2 -6 -16 -9
-44 -7 -58 4 -107 -12 -99 -33 3 -8 1 -17 -5 -21 -5 -3 -7 -15 -4 -27 5 -17 4
-19 -4 -7 -11 17 -10 17 -44 -33 -23 -35 -26 -36 -32 -17 -6 20 -20 19 -20 -1
0 -11 -19 -13 -22 -2 -1 4 10 17 24 27 14 11 23 14 19 8 -13 -22 13 -12 28 10
26 37 3 46 -57 22 -10 -3 -16 3 -19 21 -4 16 -1 24 6 22 6 -2 10 -11 8 -20 -2
-11 3 -14 18 -10 24 7 32 17 25 35 -7 19 -95 21 -95 2 0 -8 5 -14 10 -14 6 0
10 -10 9 -22 0 -16 -2 -18 -6 -8 -9 22 -53 73 -53 61 0 -6 -13 -11 -30 -11
-38 0 -40 20 -2 21 15 0 34 2 42 5 8 2 35 8 60 13 141 30 129 49 -27 46 -75
-2 -118 0 -103 5 14 4 43 9 65 9 53 2 76 16 44 27 -31 11 -180 7 -191 -4 -5
-5 -28 -5 -52 1 -50 11 -110 2 -85 -14 7 -5 43 -9 79 -9 36 0 72 -5 80 -10 11
-8 -6 -10 -60 -10 -41 0 -91 -2 -111 -6 -25 -4 -47 0 -69 11 -24 12 -31 13
-28 3 8 -24 73 -48 164 -58 49 -6 99 -11 112 -11 19 1 21 -1 10 -12 -14 -15
-50 -19 -42 -5 3 4 -17 8 -45 8 -41 0 -49 -3 -45 -15 8 -19 -26 -21 -45 -2
-11 10 -14 10 -18 0 -3 -7 -11 -13 -19 -13 -12 0 -15 -22 -13 -124 0 -69 -2
-130 -6 -136 -4 -6 -4 -19 0 -28 4 -9 7 -41 5 -70 -2 -63 12 -84 48 -75 29 7
112 63 112 75 0 4 5 8 10 8 6 0 10 -9 10 -20 0 -13 -7 -20 -20 -20 -11 0 -20
-5 -20 -12 0 -6 -3 -9 -6 -5 -4 3 -22 -6 -41 -20 -20 -16 -46 -26 -64 -25
l-30 1 6 -197 c2 -108 5 -244 4 -300 0 -71 4 -109 13 -120 8 -10 9 -13 1 -9
-7 5 -12 1 -12 -10 -1 -10 -1 -25 -1 -33 -2 -37 5 -60 17 -56 15 6 18 -10 3
-19 -5 -3 -10 -18 -9 -33 0 -16 3 -21 6 -12 9 22 26 30 39 19 12 -9 73 15 86
35 4 6 10 7 14 3 10 -10 -16 -37 -37 -37 -10 0 -21 -5 -25 -11 -3 -6 -19 -9
-35 -7 -15 3 -26 1 -24 -3 3 -4 -1 -12 -8 -18 -18 -14 -27 -219 -12 -278 7
-31 -9 -29 -29 2 -9 14 -21 23 -26 20 -6 -4 -10 3 -10 14 0 12 -7 21 -16 21
-8 0 -12 5 -9 11 4 5 -1 19 -11 30 -13 14 -20 16 -31 8 -10 -9 -13 -8 -13 5 0
10 -4 14 -10 11 -5 -3 -10 -2 -10 4 0 5 6 11 13 14 6 2 0 4 -15 3 -16 -1 -29
-8 -31 -18 -4 -15 38 -89 56 -96 15 -7 6 -21 -10 -15 -16 6 -16 5 -4 -10 7 -9
22 -17 33 -17 14 0 18 -5 14 -16 -3 -8 -2 -13 3 -10 9 6 35 -22 65 -69 24 -37
46 -54 69 -55 14 0 17 -5 12 -22 -6 -22 -5 -22 6 -3 7 11 13 21 14 23 1 1 16
7 34 12 29 8 30 7 21 -11 -11 -20 3 -28 15 -9 3 6 28 10 56 10 27 0 49 -4 49
-10 0 -5 -11 -10 -25 -10 -14 0 -25 -4 -25 -8 0 -5 -14 -7 -31 -6 -18 1 -48
-4 -69 -11 -21 -7 -44 -12 -51 -12 -34 4 -108 -28 -118 -51 -6 -13 -9 -27 -6
-32 3 -5 1 -11 -5 -15 -5 -3 -10 -14 -10 -24 0 -9 -6 -23 -12 -29 -7 -7 -13
-20 -13 -30 0 -10 -8 -17 -19 -17 -14 0 -20 -9 -22 -33 -2 -18 0 -31 5 -28 16
10 19 -19 5 -39 -8 -10 -14 -14 -14 -9 0 6 4 15 10 22 5 7 3 6 -6 -2 -11 -9
-13 -19 -8 -28 9 -13 33 -98 28 -98 -1 0 -62 100 -134 222 -73 123 -145 244
-160 269 -15 25 -29 65 -32 88 -4 43 -3 44 69 103 40 32 79 68 87 79 9 13 21
19 33 15 10 -3 34 -2 53 2 l35 8 -3 234 c-5 344 -22 1231 -25 1260 -2 24 1 25
63 30 73 6 90 13 90 40 0 10 20 40 44 67 41 45 48 49 78 44 32 -5 32 -6 6 -9z
m195 -9 c-7 -2 -19 -2 -25 0 -7 3 -2 5 12 5 14 0 19 -2 13 -5z m50 -190 c-7
-2 -19 -2 -25 0 -7 3 -2 5 12 5 14 0 19 -2 13 -5z m364 -100 c-3 -10 -5 -4 -5
12 0 17 2 24 5 18 2 -7 2 -21 0 -30z m-107 -13 c0 -5 -2 -10 -4 -10 -3 0 -8 5
-11 10 -3 6 -1 10 4 10 6 0 11 -4 11 -10z m-193 -42 c-3 -8 -6 -5 -6 6 -1 11
2 17 5 13 3 -3 4 -12 1 -19z m300 -10 c-3 -8 -6 -5 -6 6 -1 11 2 17 5 13 3 -3
4 -12 1 -19z m-300 -30 c-3 -8 -6 -5 -6 6 -1 11 2 17 5 13 3 -3 4 -12 1 -19z
m53 -58 c-8 -5 -17 -7 -19 -4 -3 3 1 9 9 14 8 5 17 7 19 4 3 -3 -1 -9 -9 -14z
m-289 -33 c-10 -9 -11 -8 -5 6 3 10 9 15 12 12 3 -3 0 -11 -7 -18z m262 -12
c-3 -9 -8 -14 -10 -11 -3 3 -2 9 2 15 9 16 15 13 8 -4z m-78 -53 c-3 -4 -10 0
-15 8 -6 9 -5 17 3 22 13 8 24 -19 12 -30z m48 -24 c-4 -13 -12 -32 -20 -43
-13 -19 -13 -19 -13 3 0 12 4 22 9 22 5 0 11 9 14 20 3 11 7 20 10 20 3 0 3
-10 0 -22z m-163 -48 c-24 -15 -36 -11 -14 4 10 8 21 12 24 10 2 -3 -2 -9 -10
-14z m-20 -73 c0 -2 -10 -12 -21 -23 -22 -19 -22 -19 -10 4 10 18 31 31 31 19z
m117 -59 c-3 -8 -6 -5 -6 6 -1 11 2 17 5 13 3 -3 4 -12 1 -19z m68 -8 c3 -5 1
-10 -4 -10 -6 0 -11 5 -11 10 0 6 2 10 4 10 3 0 8 -4 11 -10z m-101 -25 c-4
-8 -11 -15 -16 -15 -6 0 -5 6 2 15 7 8 14 15 16 15 2 0 1 -7 -2 -15z m23 -7
c-3 -8 -6 -5 -6 6 -1 11 2 17 5 13 3 -3 4 -12 1 -19z m-107 -2 c0 -3 -4 -8
-10 -11 -5 -3 -10 -1 -10 4 0 6 5 11 10 11 6 0 10 -2 10 -4z m23 -36 c6 -22 0
-25 -23 -10 -13 9 -13 11 0 20 8 5 16 10 16 10 1 0 4 -9 7 -20z m367 -19 c0
-5 -7 -14 -15 -21 -12 -10 -15 -10 -15 2 0 8 3 18 7 21 9 10 23 9 23 -2z
m-328 -38 c-6 -2 -10 -9 -6 -14 9 -15 -20 -49 -35 -40 -10 6 -9 10 3 14 9 4
16 16 16 27 0 13 6 20 18 19 10 0 12 -3 4 -6z m266 -20 c-7 -16 -13 -29 -14
-31 0 -1 -8 0 -17 4 -13 5 -12 10 11 30 34 30 34 30 20 -3z m132 -57 l-23 -21
19 33 c10 18 20 28 23 21 2 -6 -7 -21 -19 -33z m-569 11 c-10 -9 -11 -8 -5 6
3 10 9 15 12 12 3 -3 0 -11 -7 -18z m129 0 c0 -2 -10 -12 -22 -23 l-23 -19 19
23 c18 21 26 27 26 19z m402 -39 c-7 -7 -12 -8 -12 -2 0 14 12 26 19 19 2 -3
-1 -11 -7 -17z m-459 -24 c-3 -9 1 -14 13 -14 9 0 15 -3 11 -6 -14 -14 -45 8
-43 30 1 18 4 22 13 14 6 -5 9 -16 6 -24z m377 32 c0 -2 -7 -7 -16 -10 -8 -3
-12 -2 -9 4 6 10 25 14 25 6z m55 -16 c-3 -5 -11 -10 -16 -10 -6 0 -7 5 -4 10
3 6 11 10 16 10 6 0 7 -4 4 -10z m-158 -6 c-3 -3 -12 -4 -19 -1 -8 3 -5 6 6 6
11 1 17 -2 13 -5z m240 -31 c-3 -10 -5 -4 -5 12 0 17 2 24 5 18 2 -7 2 -21 0
-30z m-397 23 c0 -2 -9 -6 -20 -9 -11 -3 -18 -1 -14 4 5 9 34 13 34 5z m220 1
c0 -2 -10 -12 -21 -23 -22 -19 -22 -19 -10 4 10 18 31 31 31 19z m80 -42 c-7
-9 -15 -13 -17 -11 -6 6 20 36 26 30 2 -2 -2 -10 -9 -19z m-448 -7 c-7 -7 -12
-8 -12 -2 0 14 12 26 19 19 2 -3 -1 -11 -7 -17z m308 -2 c0 -3 -4 -8 -10 -11
-5 -3 -10 -1 -10 4 0 6 5 11 10 11 6 0 10 -2 10 -4z m161 -27 c-12 -10 -27
-16 -33 -13 -5 3 -22 -8 -39 -25 -26 -28 -49 -40 -49 -26 0 16 76 69 98 70 14
0 27 6 30 13 2 7 7 10 11 7 3 -4 -5 -15 -18 -26z m-431 5 c0 -2 -9 -4 -21 -4
-11 0 -18 4 -14 10 5 8 35 3 35 -6z m507 -21 c-3 -10 -5 -4 -5 12 0 17 2 24 5
18 2 -7 2 -21 0 -30z m-564 3 c4 -9 -2 -13 -19 -13 -23 0 -23 1 -7 13 22 17
20 17 26 0z m47 -16 c0 -5 -5 -10 -11 -10 -5 0 -7 5 -4 10 3 6 8 10 11 10 2 0
4 -4 4 -10z m60 0 c0 -5 -7 -10 -16 -10 -8 0 -12 5 -9 10 3 6 10 10 16 10 5 0
9 -4 9 -10z m138 -10 c13 0 21 -4 18 -9 -5 -7 -55 -8 -94 -2 -2 1 0 6 4 12 3
6 16 8 28 5 11 -3 31 -6 44 -6z m235 -22 c-6 -11 -31 -10 -37 1 -3 5 5 8 18 7
13 0 22 -4 19 -8z m-437 -29 c3 -40 -7 -77 -22 -83 -12 -4 -12 -2 -4 14 13 24
4 44 -16 36 -8 -3 -14 -1 -14 4 0 14 -51 -7 -66 -28 -8 -9 -14 -12 -14 -5 0
12 26 42 38 44 4 0 18 2 31 5 13 2 29 -1 36 -6 9 -7 15 -7 19 -1 4 5 2 12 -4
16 -14 9 -12 37 3 33 6 -3 13 -16 13 -29z m474 11 c0 -5 -5 -10 -11 -10 -5 0
-7 5 -4 10 3 6 8 10 11 10 2 0 4 -4 4 -10z m-560 -10 c0 -5 -4 -10 -10 -10 -5
0 -10 5 -10 10 0 6 5 10 10 10 6 0 10 -4 10 -10z m383 -25 c-3 -9 -8 -14 -10
-11 -3 3 -2 9 2 15 9 16 15 13 8 -4z m227 -27 c0 -25 -4 -38 -9 -32 -8 8 -4
74 5 74 2 0 4 -19 4 -42z m-320 -23 c-30 -32 -38 -25 -9 9 12 14 25 24 27 21
3 -3 -5 -16 -18 -30z m-266 0 c-4 -8 -11 -15 -16 -15 -6 0 -5 6 2 15 7 8 14
15 16 15 2 0 1 -7 -2 -15z m344 -3 c2 -7 -2 -10 -12 -6 -9 3 -16 11 -16 16 0
13 23 5 28 -10z m-285 -49 c-9 -22 -23 -15 -19 10 3 12 5 24 5 27 1 3 5 -1 10
-9 5 -8 7 -20 4 -28z m354 0 c-3 -10 -5 -4 -5 12 0 17 2 24 5 18 2 -7 2 -21 0
-30z m-107 8 c0 -4 -7 -8 -15 -8 -16 0 -20 9 -9 20 8 8 24 -1 24 -12z m280 4
c0 -8 -4 -15 -10 -15 -5 0 -7 7 -4 15 4 8 8 15 10 15 2 0 4 -7 4 -15z m-395
-24 c-3 -6 -11 -11 -17 -11 -6 0 -6 6 2 15 14 17 26 13 15 -4z m-85 -6 c-14
-8 -32 -14 -40 -15 -17 0 -50 -34 -50 -50 0 -6 -7 -10 -15 -10 -9 0 -12 6 -8
17 5 12 2 15 -10 10 -23 -9 -22 9 1 19 33 15 117 42 132 43 8 0 4 -6 -10 -14z
m477 -17 c-3 -8 -6 -5 -6 6 -1 11 2 17 5 13 3 -3 4 -12 1 -19z m-197 8 c0 -2
-7 -9 -15 -16 -13 -11 -14 -10 -9 4 5 14 24 23 24 12z m40 -6 c0 -5 -5 -10
-11 -10 -5 0 -7 5 -4 10 3 6 8 10 11 10 2 0 4 -4 4 -10z m-206 -13 c-2 -7 -14
-18 -25 -25 -19 -12 -20 -12 -3 13 17 26 37 35 28 12z m67 -1 c5 3 9 1 9 -5 0
-16 -20 -23 -34 -12 -7 6 -15 10 -17 8 -2 -1 3 4 11 11 9 8 16 9 18 2 2 -5 8
-8 13 -4z m299 -111 c0 -71 -4 -105 -11 -105 -8 0 -10 12 -6 36 7 42 0 64 -19
64 -8 0 -14 5 -14 10 0 6 7 10 15 10 8 0 15 5 15 10 0 12 -3 12 -24 4 -9 -3
-16 -13 -16 -21 0 -8 -5 -11 -10 -8 -6 4 -22 0 -35 -9 -13 -9 -27 -16 -30 -16
-11 0 49 47 83 64 17 9 33 21 33 26 1 6 3 15 4 20 1 6 3 12 4 15 0 3 3 5 6 5
3 0 5 -47 5 -105z m-120 80 c0 -8 -4 -15 -10 -15 -5 0 -7 7 -4 15 4 8 8 15 10
15 2 0 4 -7 4 -15z m-300 -19 c0 -3 -13 -14 -30 -26 -16 -12 -30 -17 -30 -11
0 6 12 17 28 25 31 17 32 18 32 12z m-173 -22 c-3 -3 -12 -4 -19 -1 -8 3 -5 6
6 6 11 1 17 -2 13 -5z m39 -22 c0 -10 -6 -19 -13 -19 -16 0 -17 9 -1 25 15 15
14 15 14 -6z m-46 4 c0 -3 -4 -8 -10 -11 -5 -3 -10 -1 -10 4 0 6 5 11 10 11 6
0 10 -2 10 -4z m560 -50 c0 -3 -4 -8 -10 -11 -5 -3 -10 -1 -10 4 0 6 5 11 10
11 6 0 10 -2 10 -4z m-107 -31 c-10 -7 -21 -11 -26 -8 -5 3 0 11 10 18 10 7
21 11 26 8 5 -3 0 -11 -10 -18z m67 15 c0 -5 -5 -10 -11 -10 -5 0 -7 5 -4 10
3 6 8 10 11 10 2 0 4 -4 4 -10z m-514 -49 c-3 -4 1 -17 9 -27 8 -10 14 -23 15
-29 0 -5 -9 3 -19 19 -18 26 -19 46 -5 46 3 0 3 -4 0 -9z m304 -22 c0 -5 -12
-9 -27 -9 -27 1 -27 1 -9 15 19 14 36 12 36 -6z m-239 -42 c-10 -9 -11 -8 -5
6 3 10 9 15 12 12 3 -3 0 -11 -7 -18z m-245 -124 c-10 -10 -19 5 -10 18 6 11
8 11 12 0 2 -7 1 -15 -2 -18z m838 -72 c63 -64 66 -68 41 -68 -14 0 -31 -5
-36 -10 -16 -16 15 -33 65 -35 40 -2 52 -8 84 -42 20 -21 30 -36 20 -33 -9 3
-19 3 -22 0 -9 -10 -55 -10 -49 0 2 4 13 7 23 5 24 -4 30 16 6 20 -22 5 -58
-27 -52 -44 3 -8 -1 -11 -10 -7 -18 7 -18 11 1 29 8 9 15 21 15 27 0 8 -4 7
-12 -1 -14 -14 -28 -16 -28 -3 0 15 32 22 46 10 8 -6 14 -9 14 -6 0 3 3 12 6
21 5 13 1 15 -27 9 -19 -3 -40 -14 -46 -24 -13 -18 -73 -43 -73 -30 0 4 12 12
28 19 27 11 26 12 -9 8 -32 -4 -36 -2 -32 15 4 15 9 17 19 8 16 -13 34 -4 34
17 0 19 -40 33 -65 23 -39 -16 -139 -29 -148 -20 -6 6 -1 8 13 4 20 -5 22 -3
16 13 -6 15 -5 17 5 7 15 -15 33 -17 24 -3 -3 6 -2 10 4 10 6 0 7 7 4 17 -4
11 -3 14 5 9 7 -4 12 -14 12 -23 0 -10 6 -13 16 -9 9 3 22 6 30 6 8 0 14 5 14
11 0 7 -10 9 -27 4 l-28 -7 29 23 c26 21 28 26 22 71 -4 26 -5 48 -4 48 2 0
34 -31 72 -69z m-494 17 c0 -5 6 -6 13 -2 9 5 9 4 0 -6 -10 -11 -15 -11 -28 0
-19 16 -20 31 0 24 8 -4 15 -10 15 -16z m174 -128 c-5 -20 -3 -30 6 -30 7 0
10 7 6 16 -4 11 -2 15 8 11 10 -4 12 1 9 16 -4 20 -3 20 7 4 11 -18 13 -18 33
0 16 13 18 14 9 2 -10 -14 -9 -17 8 -22 14 -4 18 -10 13 -23 -4 -11 -8 -13
-11 -6 -4 14 -38 16 -46 3 -4 -5 -3 -16 0 -25 5 -12 10 -13 25 -5 26 13 24 7
-7 -22 -16 -15 -23 -18 -19 -8 4 10 0 19 -9 22 -15 6 -29 -6 -38 -33 -4 -11
-9 -7 -18 12 -11 22 -16 25 -27 16 -11 -9 -11 -13 -1 -19 17 -11 3 -23 -18
-15 -9 3 -14 12 -10 21 4 12 2 13 -14 2 -11 -6 -20 -17 -20 -24 0 -6 -9 -10
-20 -8 -11 2 -20 1 -20 -3 0 -4 -14 -7 -30 -8 -42 -2 -37 10 10 26 43 14 47
19 28 38 -9 9 -8 12 6 12 9 0 15 -4 11 -9 -3 -5 -1 -12 5 -16 13 -8 33 43 25
64 -4 13 -2 12 9 -1 7 -10 19 -18 26 -18 7 0 10 7 6 18 -5 14 -4 14 9 -2 8
-11 18 -17 21 -13 4 4 1 13 -6 22 -10 12 -8 16 11 24 13 5 25 10 26 10 1 1 0
-12 -3 -29z m-139 -20 c-3 -5 -14 -10 -23 -10 -15 0 -15 2 -2 10 20 13 33 13
25 0z m341 -15 c5 -13 9 -13 23 -3 14 12 15 11 2 -5 -14 -18 -16 -18 -27 -2
-12 16 -14 16 -36 1 -31 -22 -46 -20 -22 3 23 24 53 27 60 6z m-86 -31 c0 -8
-5 -12 -10 -9 -6 4 -8 11 -5 16 9 14 15 11 15 -7z m135 -44 c-3 -5 -12 -10
-18 -10 -7 0 -6 4 3 10 19 12 23 12 15 0z m109 -4 c-6 -16 -34 -30 -34 -18 0
10 22 32 32 32 4 0 5 -6 2 -14z m207 -23 c18 -20 26 -31 17 -24 -9 7 -23 9
-29 5 -8 -5 -9 -3 -5 5 5 7 0 21 -10 32 -9 10 -15 19 -13 19 3 0 21 -17 40
-37z m-816 7 c-21 -8 -35 -4 -35 9 0 5 12 6 27 3 24 -5 25 -6 8 -12z m-48 -3
c2 -3 0 -8 -6 -12 -6 -3 -11 0 -11 7 0 7 -14 -4 -31 -25 -27 -33 -60 -53 -44
-27 3 6 2 10 -3 10 -5 0 -12 -9 -15 -20 -6 -22 -42 -28 -50 -7 -4 7 -8 3 -12
-10 -4 -13 -11 -23 -16 -23 -5 0 -3 11 3 25 6 14 14 25 18 25 4 0 5 11 2 25
-2 14 0 25 6 25 17 0 24 -18 10 -23 -9 -3 -6 -12 11 -28 20 -20 23 -21 17 -5
-6 18 9 46 25 46 5 0 9 -7 9 -15 0 -19 14 -19 29 -1 8 10 9 16 1 21 -17 11 -2
22 26 19 14 -1 28 -5 31 -7z m815 -19 c-7 -7 -12 -8 -12 -2 0 14 12 26 19 19
2 -3 -1 -11 -7 -17z m-636 -22 c-3 -17 0 -36 6 -43 7 -9 7 -13 0 -13 -6 0 -14
5 -17 10 -14 22 -25 -4 -25 -55 0 -30 -4 -56 -10 -60 -5 -3 -8 16 -8 48 1 29
-2 59 -7 66 -6 10 -4 12 5 6 10 -6 11 -2 6 19 -4 15 -2 26 4 26 5 0 10 -4 10
-10 0 -5 5 -10 11 -10 6 0 9 10 7 23 -3 16 0 24 9 24 10 0 12 -9 9 -31z m568
19 c-4 -8 -11 -15 -17 -15 -7 0 -7 -4 1 -12 14 -14 16 -28 3 -28 -14 0 -21 43
-9 57 14 18 29 16 22 -2z m-174 -30 c0 -20 -5 -24 -31 -23 -18 1 -25 4 -18 9
7 4 19 5 27 1 12 -4 14 0 8 22 -4 18 -3 25 4 21 5 -3 10 -17 10 -30z m210 5
c0 -5 -4 -10 -10 -10 -5 0 -10 5 -10 10 0 6 5 10 10 10 6 0 10 -4 10 -10z
m-160 -35 c-7 -8 -20 -15 -28 -15 -13 0 -12 3 4 15 25 19 40 19 24 0z m234
-21 c4 -11 1 -14 -12 -12 -9 1 -23 -1 -29 -5 -9 -5 -13 -2 -13 9 0 11 6 15 20
11 11 -3 20 -1 20 4 0 14 7 11 14 -7z m-884 -14 c0 -5 -2 -10 -4 -10 -3 0 -8
5 -11 10 -3 6 -1 10 4 10 6 0 11 -4 11 -10z m820 -1 c0 -5 -8 -9 -17 -10 -10
0 -28 -2 -40 -5 -14 -2 -23 1 -23 9 0 8 15 13 40 13 22 1 40 -2 40 -7z m-936
-24 c3 -8 1 -15 -4 -15 -6 0 -10 7 -10 15 0 8 2 15 4 15 2 0 6 -7 10 -15z
m347 -2 c13 -16 12 -17 -3 -4 -10 7 -18 15 -18 17 0 8 8 3 21 -13z m-387 -59
c-4 -17 -2 -29 7 -35 10 -6 11 -9 2 -9 -7 0 -15 1 -16 3 -2 1 -11 -4 -20 -12
-11 -9 -17 -10 -17 -2 0 6 5 11 12 11 6 0 8 3 5 7 -4 3 -2 12 4 20 6 7 8 13 5
13 -6 0 15 29 22 30 1 0 -1 -12 -4 -26z m46 22 c0 -3 -4 -8 -10 -11 -5 -3 -10
-1 -10 4 0 6 5 11 10 11 6 0 10 -2 10 -4z m-10 -86 c0 -5 -2 -10 -4 -10 -3 0
-8 5 -11 10 -3 6 -1 10 4 10 6 0 11 -4 11 -10z"/>
<path d="M2589 4003 c0 -16 -2 -38 -3 -50 -1 -12 4 -25 11 -27 8 -3 11 -2 8 4
-7 11 32 33 45 25 6 -3 10 -2 10 4 0 5 -4 12 -10 16 -5 3 -6 13 -3 21 7 18
-12 34 -39 34 -13 0 -18 -8 -19 -27z"/>
<path d="M3050 3760 c-30 -24 -44 -25 -36 -4 3 8 2 12 -4 9 -6 -3 -10 -12 -10
-18 0 -7 -19 -20 -41 -30 -41 -18 -43 -18 -89 2 -55 24 -122 19 -119 -8 2 -28
-1 -32 -19 -22 -13 7 -35 4 -74 -9 -60 -19 -115 -46 -109 -52 2 -1 -2 -21 -8
-43 -6 -22 -11 -46 -11 -52 0 -31 172 -4 335 51 99 34 137 51 192 88 60 40 57
37 51 43 -3 3 -23 -4 -44 -17 l-39 -22 28 36 c15 20 27 42 27 48 0 7 7 9 16 6
8 -3 12 -2 9 4 -9 15 -27 12 -55 -10z m-215 -81 c11 -17 -1 -21 -15 -4 -8 9
-8 15 -2 15 6 0 14 -5 17 -11z m175 -9 c0 -5 -4 -10 -10 -10 -5 0 -10 5 -10
10 0 6 5 10 10 10 6 0 10 -4 10 -10z"/>
<path d="M3190 3707 c0 -15 24 -67 30 -67 11 0 -8 58 -21 66 -5 3 -9 3 -9 1z"/>
<path d="M3231 3694 c0 -11 3 -14 6 -6 3 7 2 16 -1 19 -3 4 -6 -2 -5 -13z"/>
<path d="M2450 3469 c0 -13 5 -31 10 -39 7 -11 8 -5 4 20 -8 43 -14 51 -14 19z"/>
<path d="M2550 3305 c0 -8 4 -15 10 -15 5 0 7 7 4 15 -4 8 -8 15 -10 15 -2 0
-4 -7 -4 -15z"/>
<path d="M3147 3334 c-12 -13 -8 -20 14 -21 11 -1 19 3 17 9 -5 15 -22 21 -31
12z"/>
<path d="M3015 3180 c-3 -5 -1 -10 4 -10 6 0 11 5 11 10 0 6 -2 10 -4 10 -3 0
-8 -4 -11 -10z"/>
<path d="M2970 3096 c0 -2 7 -9 15 -16 13 -11 14 -10 9 4 -5 14 -24 23 -24 12z"/>
<path d="M2966 3041 c10 -17 22 -31 26 -31 10 0 10 14 1 24 -5 4 -8 13 -8 19
0 7 -8 13 -19 15 -18 4 -18 3 0 -27z"/>
<path d="M2714 2978 c-3 -11 -3 -22 0 -25 3 -4 6 1 6 10 0 9 10 17 23 19 l22
3 -22 7 c-17 4 -24 1 -29 -14z"/>
<path d="M2985 2991 c-6 -11 9 -23 19 -14 9 9 7 23 -3 23 -6 0 -12 -4 -16 -9z"/>
<path d="M2680 2929 c0 -5 5 -7 10 -4 6 3 10 8 10 11 0 2 -4 4 -10 4 -5 0 -10
-5 -10 -11z"/>
<path d="M3135 2337 c-4 -10 -5 -21 -1 -24 10 -10 18 4 13 24 -4 17 -4 17 -12
0z"/>
<path d="M2490 745 c-11 -13 -10 -14 4 -9 9 3 16 10 16 15 0 13 -6 11 -20 -6z"/>
<path d="M2400 608 c0 -23 3 -29 9 -19 5 7 13 16 19 20 7 4 4 11 -8 19 -18 11
-20 9 -20 -20z"/>
<path d="M2479 554 c-9 -12 -7 -14 15 -12 14 1 27 7 30 13 6 16 -31 16 -45 -1z"/>
<path d="M2547 563 c-4 -3 -7 -11 -7 -17 0 -6 5 -5 12 2 6 6 9 14 7 17 -3 3
-9 2 -12 -2z"/>
<path d="M2510 515 c-1 -5 -3 -23 -5 -39 l-4 -29 20 21 c20 22 26 37 10 27 -5
-3 -12 3 -14 12 -3 10 -6 14 -7 8z"/>
<path d="M2410 475 c-11 -13 -10 -14 4 -9 9 3 16 10 16 15 0 13 -6 11 -20 -6z"/>
<path d="M3030 605 c-7 -9 -8 -15 -2 -15 5 0 12 7 16 15 3 8 4 15 2 15 -2 0
-9 -7 -16 -15z"/>
</g>
</svg>
