<svg id="Calque_1" data-name="Calque 1" xmlns="http://www.w3.org/2000/svg" viewBox="0 0 678.43 678.43"><defs><style>.cls-1{fill:none;stroke:#1d1d1b;stroke-miterlimit:10;stroke-width:20px;}</style></defs><g id="Logo_BeetleJuice" data-name="Logo BeetleJuice"><circle class="cls-1" cx="339.21" cy="339.21" r="329.21"/><path d="M355.54,433.23c-9.44,3.57-18.32,7.06-27.29,10.3-15.17,5.5-25.41,15.86-32.32,30.41-13.05,27.49-14.35,55.76-8.17,85.12,4.58,21.73,14.78,40.37,28.12,57.66,7.68,10,18.21,14.51,30.08,17.35,34.9,8.34,68.64,5.32,101-10,30.78-14.59,48.89-39.48,54.9-72.66a168.15,168.15,0,0,0-12.28-100.56C483.84,437.9,477.73,425.15,469,414c-15.76-20.27-36.68-32.22-61.83-36.69a286.76,286.76,0,0,0-47.07-4.46,117.68,117.68,0,0,1-52.94-12.73,65.27,65.27,0,0,1-23.44-19.72c-16.55-22.66-22.32-48.25-19.69-76,2.25-23.81,10.52-46.16,16.2-69.14.31-1.25,1.72-2.79.2-3.86-1.3-.9-2.68.4-3.88,1-12.12,6.36-22.25,15.31-32,24.71-1.35,1.3-2.66,4.11-4.5,3.11-2.35-1.28-.35-3.85.24-5.67,4.05-12.52,8.71-24.79,16.36-35.63,6.57-9.31,15.33-16.11,25.36-21.3a191,191,0,0,1,19.05-9.12c7.57-2.92,13.72-7.67,19.6-13,16-14.51,35.12-21.81,56.47-22.85,14.22-.69,28-2.65,41.17-8.32,2.64-1.14,6-2.75,8,.48,1.88,3.06-1.15,5.13-3.08,7.08a29.85,29.85,0,0,1-4.56,3.77c-5,3.37-9.54,7-10.21,13.64a8,8,0,0,1-1.72,3.36c-.69,1-1.32,2.57-2.72,2.36-1.81-.27-1-2.08-1.12-3.19-.35-3-1.46-3.75-4-1.76a16.23,16.23,0,0,1-2.57,1.46c-6.23,3.31-6.23,3.31-7.41,11,5.3-.49,10.11-2.45,15-4,7-2.27,14.1-4,21.53-3.91a20.33,20.33,0,0,1,4.2.38c1.15.26,3-.18,3.25,1.33s-1.56,1.74-2.63,2.2a14.45,14.45,0,0,0-4.92,3.83c-2.41,2.61-3.72,5.2-2,8.68.36.73.68,1.75-.18,2.31s-1.53-.34-2.19-.81c-1.41-1-2.48-2.9-4.72-1.56s-1.14,3.11-.95,4.87c.13,1.14,1.16,2.72-.44,3.39-1.22.51-1.88-.93-2.59-1.75-1.13-1.3-2.11-2.68-4.22-1.58-1.95,1-2,2.49-1.47,4.29.29,1.06.87,2.58-.26,3.11-1.45.69-2.1-1-2.85-1.93-1-1.21-1.71-2.64-3.73-1.84s-2.28,2.26-2.23,4.09c0,1.09.5,2.54-.61,3.14-1.42.77-1.79-.9-2.47-1.67s-1.28-2-2.71-1.27-2.5,1.49-2.53,3.12c-.07,3.64-.42,6.37-3.9,1.6-.71-1-1.65-.87-2.67-.59-1.76.49-1.83,1.88-1.93,3.34-.08,1.07.34,2.55-.92,3-1.47.56-1.65-1.15-2.33-1.92s-1-1.81-2.3-1.45c-.78.22-1,1-1,1.68-.09,1.26-.36,2.54,1,3.39,2.56,1.56,4.48.55,6.37-1.32.91-.89,1.69-2.95,3.25-1.88,1.28.89.16,2.61-.15,3.94s-1.23,2.25-.52,3.66c2.07-.07,2.62-1.93,3.73-3.08.56-.58,1-1.61,2-.92.41.31.43,1.26.46,1.92A9.84,9.84,0,0,1,390,180c-.17,1.32-1.65,3-.17,3.88,1.76,1.08,3-.91,4.32-1.8,1.13-.75,1.74-3.38,3.52-1.75,1.47,1.35-.07,3.1-.73,4.62-.45,1.06-2.49,2-1.26,3.08,1.44,1.29,2.3-.79,3.37-1.54,1.5-1.06,2.59-4.21,4.48-2.78s-.14,3.88-1,5.72c-.68,1.48-1.57,2.81.17,4.08,2,1.44,3-.34,4.32-1.25,1.2-.8,1.13-4.13,3.33-2.47,1.67,1.26,1.09,4-.24,5.43-2.39,2.65-2.7,4.54,1.26,5.62-1.51,2.33-3.67,1.71-5.28,2.46-3.46,1.62-3.7,3.16-1.25,6,3.09,3.57,6.23,5.49,11.24,3.53a10.53,10.53,0,0,1,9.09.81c-2.51,1.22-4.53,2-6.39,3.15-2.78,1.64-4.09,3.75-1.83,6.91a25.28,25.28,0,0,1,2.49,4.89c.47,1.11,1.5,2.48.27,3.49s-2.36-.23-3.23-1.08c-3.29-3.22-7.35-5.2-11.39-7.22-15.36-7.63-31.69-9.84-48.55-8.12-12.83,1.32-22.78,8-30.11,18.41-6.14,8.69-11.63,18-12,29-.82,22.68,4.28,39.08,26.32,50.36,12.72,6.51,26,8.61,39.94,9.3,13.53.68,27,.67,40.56.33,18.3-.46,35.17,5.81,51.52,13.36,10.63,4.9,21,10.34,31.68,15.14a62.44,62.44,0,0,1,22.76,18c16.28,20.1,30.35,41.74,36.37,67.21,4.89,20.68,9.42,41.53,11.08,62.87.94,12.11,2.56,24.19,1,36.31-3.61,27.41-15.43,51.6-29.1,75.25-14.74,25.52-36.82,43.59-59.4,61.2-8.73,6.81-19.83,9.39-30,13.44C434.79,694.55,411.68,698,387.59,697c-18.24-.81-36.29-2-53.85-7.29-28.18-8.44-51.44-24-68.48-48.28a82.45,82.45,0,0,1-7.82-15C247,602.2,238,577.53,236.07,551c-1.25-17.58-1.4-35.22,4.78-52.32,7-19.2,19.72-33.4,36.68-44,15.76-9.83,32.25-17.94,51.24-19.65,7.4-.67,14.58-3.32,22.13-3.17C352.22,431.92,353.7,431.29,355.54,433.23ZM509.26,460c15.26-.22,32.15-4.44,48.71-10.25,6.38-2.23,6.41-2.33,4.78-9.13-5.5-22.91-16.8-43-30.58-61.76-4.3-5.86-4.25-5.73-9.38-.56-13.95,14.07-30.68,23.8-49.09,30.69-3.91,1.46-4,2.56-1.71,5.72,7.72,10.82,13.8,22.57,19.2,34.73C496.79,462.08,492.67,459.46,509.26,460Zm-2.11,61.3c-1.45,11.09-1.09,22.15-3.62,32.94a3.94,3.94,0,0,0,2.14,4.6c16.92,10,35.3,14.54,54.88,14.54a4,4,0,0,0,4.1-2.94c7.16-18.67,11-37.87,9.38-58-.29-3.63-1.47-4.72-5.3-3.87a134.81,134.81,0,0,1-57.43.66c-5.58-1.16-5.59-1.14-4.72,4.54.07.42,0,.94.22,1.23M425,324.73c-7.26,0-7.21,0-9.23,5.21-6.06,15.54-14.71,29.17-28.47,39.1-.87.62-2.46,1.06-2.23,2.27.31,1.6,2,1.09,3.21,1.24,13.39,1.8,26.87,3.19,39.54,8.36,2.12.86,3.81.16,5.56-.9a98.32,98.32,0,0,0,13.78-10.48c9.16-8.06,17.3-17,22.93-28,1.3-2.55,1.19-4.13-1.72-5.17-3.57-1.29-7.08-2.76-10.63-4.12A116.87,116.87,0,0,0,425,324.73Zm73,335.6a5.82,5.82,0,0,0,3.47-1.94c2.08-1.9,4.1-3.86,6.24-5.69,9.72-8.35,19.36-16.76,26.92-27.27,1.52-2.12,1.93-2.93-1.06-3.95A126.22,126.22,0,0,1,490,596.31c-2.95-2.62-4.15-2.34-6.37.64-6.87,9.21-14.93,17.27-24.95,23.09-2.06,1.2-2,2.32-.89,4C467.41,639,479,651.81,495.5,659.38,496.39,659.79,497.33,660.08,498,660.33ZM306.07,153.75c.89,10.37,1.16,19.26,2.77,28a100.09,100.09,0,0,0,18.39,41.88c1,1.42,2.11,4,4.52,1.51,8.11-8.22,18.23-11.45,29.44-11.91,2.66-.11,2.92-1.19,2.37-3.52a66.92,66.92,0,0,1-1.68-10.42c-.18-2.45-1.25-3.59-3.46-4l-11.23-2c-8.27-1.47-16.24-3.77-22.83-9.28-4.39-3.68-4.91-6.37-2.48-11.56a45.76,45.76,0,0,1,4.08-6.91c7.18-10.19,17-17.21,28-22.71,3.37-1.69,4.16-3.32,3.19-6.75a45.51,45.51,0,0,1-1.38-13c.06-5,0-5-4.91-3.39-6.78,2.17-12.79,5.8-18.81,9.51-7.51,4.62-13.19,11.53-20.61,16.17C307.52,147.77,305,150.42,306.07,153.75Zm77.35,502.76a6.24,6.24,0,0,0,.44,4.12c3,8,6,16,8.77,24.14,2.58,7.54,6,10.14,13.92,9.94h1.69c12.89.2,25-3.54,37.23-7,1.45-.42,3.64-.35,4-1.85.5-1.88-1.87-2.49-2.95-3.69-.65-.73-1.4-1.38-2.07-2.1-11-11.83-18-25.84-22.51-41.21-.51-1.77-.79-3.27-3.27-2.64a158.39,158.39,0,0,1-33.43,4.5c-2.36.09-3.48,1.06-2.47,3.51M281,331.42c-.08,2,.85,2.93,1.52,4A65.35,65.35,0,0,0,308,358.31c16.35,8.25,20.77,7.74,36.66-1.65,11.59-6.85,19.91-16.41,26-28.18.91-1.77,2.63-4.27-1.29-4.57a66.88,66.88,0,0,1-27-7.8,3.33,3.33,0,0,0-4.5.86c-10.07,10.89-23.18,14.23-37.31,15.45C294.08,333,287.72,331.94,281,331.42Zm15.8,335.43c-.68,2.65,1.07,4.7,3.9,6.36,9.76,5.74,20.36,9.6,30.86,13.62,4.32,1.65,8.92,2.54,13.41,3.74,1.33.35,2.92,1.17,4,0s-.14-2.64-.68-3.85a62.6,62.6,0,0,1-4.5-14.93c-1.91-10.69-1.27-21.36.35-32,.5-3.25-.2-4.57-3.43-5.21A39.86,39.86,0,0,1,319.15,623c-2-2.06-3.18-1.45-4.61.58-6.45,9.15-12,18.76-15.26,29.53A63.1,63.1,0,0,0,296.84,666.85ZM275,224.49c-.38.3-.71.42-.78.63a195.38,195.38,0,0,0-8.63,44.3c-.2,2.81,1.08,4.79,3,6.67a72.29,72.29,0,0,0,32.1,18.79,46.59,46.59,0,0,0,14.64,1.54c1.51-.07,3.12-.15,2.08-2.36-4.13-8.76-4.7-18.21-5.34-27.64a5,5,0,0,0-2.83-4.33c-10.62-6.06-18.95-14.54-25.73-24.62C280.61,233.19,277.84,228.84,275,224.49ZM245.49,588.07c3.63,12.8,8.66,25.07,13.82,37.64.83-.75,1.23-1,1.43-1.31,8.23-13.8,19.63-24.26,33.6-32,1.94-1.08,2.14-2.29,1.19-4.13a93.06,93.06,0,0,1-8.73-25.1c-.42-2.16-1.53-3.13-3.84-2.8-13.26,1.9-25.93,5.44-37,13.43a18.57,18.57,0,0,0-3.34,3.17c-.56.67.14,1.87.52,1.58M427.89,137.12c-9-1.25-17.33,1.38-25.67,4-7.23,2.24-14.37,4.6-22.05,5.14-4.71.34-10.25-.66-12.87,5.68-.89,2.14-2.23.25-2.23-1.38,0-2.35-1-2.77-3.21-2.32-7.74,1.58-7.76,1.5-8.89,9.1-.06.42-.07.85-.17,1.26-.54,2.13-.43,5.55-2.67,5.66-2.48.12-1.66-3.27-2.13-5.14-.73-2.92-1.75-3.11-4.37-1.54-4.62,2.78-5.78,6.33-4.27,11.33.58,1.93.93,4.93-1.24,5.63-2,.66-2-2.5-3-3.84a4.42,4.42,0,0,1-.44-.73c-1.17-2.38-2.37-2.8-4.26-.47-4,4.92-3.9,6.57,1.3,10.09,1.86,1.26,3.91,2.24,5.87,3.34,2.63,1.48,4.81,1.4,7.08-1a13.49,13.49,0,0,1,9.45-4.54c-.94,2.68-3.12,3.48-4.37,5.08-1.88,2.4-2,3.91,1.46,4.51,4.16.73,8.29,1.61,12.44,2.4,1.53.29,3.12.62,4.43-.59a31.74,31.74,0,0,1,9.29-5.71c-2.26-1.51-4.13-2.72-5.94-4-5.73-4-6-7.47-.66-12.18a43.13,43.13,0,0,1,9.94-7.13C396.42,152.23,410.88,142.1,427.89,137.12ZM238,539.74a78.68,78.68,0,0,1,41.38-11.83c2.08,0,2.74-.79,2.68-2.73a89.5,89.5,0,0,1,1.64-20.2c.35-1.74.18-3.4-1.85-4.2-11.5-4.48-23.27-6.54-35.59-4.32-2.1.37-3.05,1.53-3.73,3.46C238.13,512.65,236.91,525.73,238,539.74Zm27.25-73.46c7.73,1.1,14.49,2.54,20.67,5.76,3.24,1.69,5,3,8-1.51l1-1.56s2.48-6.67,6.1-8.36c.89-.42-.79-1.79-1.65-2.41a51.76,51.76,0,0,0-10-5.46,5.87,5.87,0,0,0-5.61.34C277.32,456.67,271.55,461.12,265.29,466.28Zm121.07-349.1c.57,2.76,1.12,5.51,1.72,8.25.33,1.52,1.12,2.25,2.71,1.38q8.13-4.45,16.27-8.88c2.62-1.42,1.24-3.21.65-5.05s-1.83-2.23-3.57-1.66c-4.71,1.54-9.63,2-14.51,2.45C387.3,113.89,386.28,114.84,386.36,117.18Zm10.05,100.57c.81.29,1.56-.4,2.1-1.83s1.05-2.65-.47-3.73c-2.06-1.48-4-3.09-6.16-4.43-1.83-1.14-3.9-3.6-5.87-2.27-2.21,1.49-1.07,4.66-1.13,7.13a2.64,2.64,0,0,0,2.24,2.68C390,216.07,392.81,216.8,396.41,217.75Zm6.68-18.2c-3.09-2.47-5.86-4.79-8.75-7s-4.53.35-6.15,2.16c-1,1.13-1.47,2.37.33,3.44C393.08,200.91,397.64,203.21,403.09,199.55ZM304.37,443.29c2.61,1.7,4.68,3.1,6.8,4.42,1.73,1.08,8.39-1.29,9-3.21a1.85,1.85,0,0,0-.35-1.49c-1.72-1.87-3.47-3.81-6.42-3A35.81,35.81,0,0,0,304.37,443.29Zm84.31-254c-1.76-2-4.12-2.31-6.06-3.35-3.18-1.69-7.8.68-8.67,4.26-.18.73-.32,1.58.43,1.83,2.49.84,4.75,3.18,7.75.92A56.27,56.27,0,0,1,388.68,189.27Z" transform="translate(-60.79 -60.79)"/><path d="M323.07,154.81a12.41,12.41,0,0,1-2.23,6.77,7,7,0,0,1-7.48,2.71c-2.87-.59-4.12-2.76-4.56-5.44-.62-3.72,1.67-9.7,4.1-10.91C318,145.41,323,148.59,323.07,154.81Z" transform="translate(-60.79 -60.79)"/><path d="M362.26,153.32a10.2,10.2,0,0,1,4.92,2.2c1.64,1.13,1.48,2.35-.18,3.19-3,1.51-6,2.92-9.11,4.24-2.11.91-2.77-.36-2.84-2.23C354.92,157.16,358.71,153.27,362.26,153.32Z" transform="translate(-60.79 -60.79)"/></g></svg>