<svg id="Calque_1" data-name="Calque 1" xmlns="http://www.w3.org/2000/svg" viewBox="0 0 194.15 194.15"><defs><style>.cls-1{fill:none;stroke:#1d1d1b;stroke-miterlimit:10;stroke-width:3px;}</style></defs><circle class="cls-1" cx="97.07" cy="97.07" r="95.57"/><path d="M76.05,160.41A48.16,48.16,0,0,0,94,144.59a3,3,0,0,1,2.19-.77c12.22,0,24.44-.29,36.65,0,15.49.41,21.55-13.93,18.65-25-2.5-9.54-8.62-14-18.5-14H103.12V87.56h3.42c7.26,0,14.52-.23,21.77.06,10.93.43,16.33-8.37,15.87-17-.33-6.21-2.75-11.29-8.85-13.77a17.18,17.18,0,0,0-6.09-1.09c-7.68-.13-15.37-.05-23.06-.06A3.11,3.11,0,0,1,103,52.86c-.05-4.43,0-8.86,0-13.43.75-.06,1.37-.15,2-.15,8.41,0,16.81.07,25.22,0,24.93-.27,35.24,24.37,31.06,39.61a26.11,26.11,0,0,1-8.38,13.21c-.59.51-1.2,1-2,1.65,1.42.78,2.73,1.41,4,2.18,11.31,7.16,15.37,17.89,14.77,30.67a36.75,36.75,0,0,1-8,21.61c-6.16,7.74-14.37,12.13-24.12,12.32-20.25.4-40.52.15-60.78.16A3.62,3.62,0,0,1,76.05,160.41Z" transform="translate(-2.93 -2.93)"/><path d="M90.11,134.35a36.36,36.36,0,0,1-14.79,17,59.27,59.27,0,0,1-23.71,7.85c-6.25.81-12.59,1-18.88,1.46-.77,0-1.54,0-2.41,0V144.44c3.63-.21,7.26-.35,10.87-.65C48,143.24,54.69,142,61,139.13c8.56-4,13.49-10.71,15.15-19.81a67.2,67.2,0,0,0,1-11.52c.1-16.83,0-33.67,0-50.51,0-.63-.06-1.25-.1-2.11H44.37V39.43H94.64c0,.59.13,1.14.13,1.69,0,22.65.07,45.29-.06,67.93,0,5.26-.77,10.52-1.15,15.41" transform="translate(-2.93 -2.93)"/></svg>