<svg id="Calque_1" data-name="Calque 1" xmlns="http://www.w3.org/2000/svg" viewBox="0 0 678.42 678.42"><defs><style>.cls-1{fill:none;stroke:#000;stroke-miterlimit:10;stroke-width:20px;}</style></defs><g id="Logo_BeetleJuice" data-name="Logo BeetleJuice"><circle class="cls-1" cx="339.21" cy="339.21" r="329.21"/></g><path d="M85,504.17c36.13,20.62,72.84,38.73,112.66,46.78,94.43,19.12,187.74,18.25,279.08-20.1a174.89,174.89,0,0,0,27.6-14.28c51.14-33.25,55.32-65.8,15.65-120.65,27.65.81,65.84,31.17,71.6,58.81,7.14,34.26-8,57.15-30.89,75.48-41.26,33.06-88.84,45.62-136.76,54.12-85.19,15.12-169.86,9.85-253-18.56C138.16,554.55,107.77,537.7,85,504.17Z"/><path d="M337.28,85.67c-25.57,58.9-6.26,100.5,18.12,141.18,11.56,19.27,22.85,38.91,32.88,59.33,31,63.47,15.07,130.93-40.42,171.29-.7-3-2.5-6.42-1.72-8.15,30.16-70.26,11-133.14-21.29-193.86C314.67,236.34,304,217.6,297.94,196,285.05,150.22,294,121.14,337.28,85.67Z"/><path d="M252.3,159.77C243.71,224.26,270.65,268,291.2,314.1c13.12,29.4,13.06,57.11-5.75,88.65-5.88-52.5-38.27-84.75-55.74-126.65C210.16,229.23,213.45,205.18,252.3,159.77Z"/><path d="M490.21,420.9c23.75,22.23,23,47.11-4.07,68.67-35.64,28.43-76,39-121.24,39C414.1,502.24,481.39,509.89,490.21,420.9Z"/></svg>